<svg width="581" height="783" viewBox="0 0 581 783" fill="none" xmlns="http://www.w3.org/2000/svg">
<rect x="310.958" y="468.881" width="117.121" height="144.035" fill="#C93305"/>
<path fill-rule="evenodd" clip-rule="evenodd" d="M276.797 327.999C289.422 318.398 321.117 314.08 334.592 323.325C347.901 332.608 349.352 347.62 355.553 361.43C361.405 358.674 371.068 362.621 372.764 368.043C374.868 370.6 374.963 377.785 376.414 381.223C439.547 391.259 449.132 440.415 456.731 496.219C466.784 552.847 489.605 609.351 479.698 667.622C480.989 669.488 482.007 671.301 482.948 673.454C485.203 677.286 482.298 682.71 477.75 682.5C471.863 681.984 466.034 681.279 460.119 681.059C443.722 680.49 427.311 680.558 410.908 680.766L408.671 680.795C326.005 681.823 243.343 683.848 160.673 684.385C157.674 684.389 156.206 681.703 156.606 679.053C157.413 673.718 158.161 668.381 158.942 663.043C139.389 668.201 118.602 669.499 99.1033 663.586C97.7393 662.198 102.281 662.95 103.002 662.74C85.0575 650.494 90.4165 624.697 92.006 606.116C101.89 542.449 105.375 472.006 143.564 417.677C160.085 395.506 184.306 377.952 212.138 374.003L212.911 373.897C221.049 372.813 230.119 372.464 237.234 368.043C245.237 361.663 248.647 349.874 257.066 349.764C259.846 349.727 263.628 353.24 267.698 355.624C268.001 350.378 270.832 345.951 271.457 341.884L271.508 341.536C272.16 336.794 271.267 332.528 276.797 327.999ZM412.477 497.902C394.734 485.592 348.902 491.777 347.853 492.467C345.543 493.984 344.548 494.118 343.299 496.089C342.065 496.252 340.833 496.422 339.601 496.596C337.13 497.402 338.961 500.437 341.815 499.355C340.099 506.747 345.15 512.005 347.161 519.314C347.814 521.687 347.185 525.955 347.161 528.38C347.356 531.471 350.779 535.123 350.208 538.225C348.18 549.252 337.175 560.008 341.815 570.702C344.889 576.742 354.134 579.822 360.28 581.875C373.015 586.756 395.203 581.691 402.602 570.702C406.549 564.841 411.121 550.055 413.474 545.469L413.996 538.194C415.282 520.11 416.426 500.642 412.477 497.902Z" fill="#AE5D29"/>
<path fill-rule="evenodd" clip-rule="evenodd" d="M256.41 349.797L261.487 352.908L290.976 367.466C296.693 369.065 299.551 370.98 299.551 373.214V395.952C299.551 398.995 304.916 405.892 315.646 416.642L325.558 406.773L325.337 405.481C324.393 399.913 323.922 396.189 323.922 394.308C323.922 392.285 333.62 384.605 353.015 371.269L361.501 363.291L360.596 360.543C365.828 360.79 371.502 364.008 372.764 368.043C374.868 370.6 374.963 377.785 376.414 381.223C439.547 391.259 449.132 440.415 456.731 496.22C466.784 552.847 489.605 609.352 479.698 667.622C480.989 669.488 482.007 671.301 482.948 673.454C485.203 677.286 482.298 682.71 477.75 682.5C471.863 681.984 466.034 681.279 460.119 681.059C443.722 680.49 427.311 680.558 410.908 680.766L408.671 680.795C326.005 681.823 243.343 683.848 160.673 684.385C157.674 684.389 156.206 681.703 156.606 679.053C157.413 673.718 158.161 668.381 158.942 663.043C139.389 668.201 118.602 669.499 99.1033 663.586C97.7393 662.198 102.281 662.95 103.002 662.74C85.0575 650.494 90.4165 624.697 92.006 606.116C101.89 542.449 105.375 472.006 143.564 417.677C160.085 395.506 184.306 377.952 212.138 374.003L212.911 373.897L213.688 373.796C221.623 372.787 230.345 372.324 237.234 368.043C245.025 361.831 248.464 350.493 256.41 349.797ZM327.069 483.262C324.177 483.262 318.253 487.747 309.299 496.719L308.51 497.083C297.685 502.104 290.514 506.46 286.997 510.15L286.871 510.283C283.318 514.09 276.281 524.213 265.761 540.653L250.527 549.65H244.763L240.659 579.378L250.527 600.605L272.879 593.086L309.299 583.499L330.197 562.325L341.986 558.373C340.556 562.5 340.037 566.606 341.815 570.702C344.889 576.742 354.134 579.822 360.28 581.875C373.015 586.756 395.203 581.691 402.602 570.702C406.549 564.841 411.121 550.055 413.474 545.469L414.149 536.018C415.365 518.579 416.268 500.532 412.477 497.902C394.734 485.592 348.902 491.777 347.853 492.467C345.543 493.984 344.548 494.118 343.299 496.089L342.652 496.175L346.289 491.249L345.001 490.562C335.812 485.695 329.834 483.262 327.069 483.262ZM341.815 499.355C340.172 506.432 344.732 511.553 346.888 518.39L341.378 507.856L341.378 499.491C341.521 499.456 341.666 499.411 341.815 499.355Z" fill="#2C1B99"/>
<path fill-rule="evenodd" clip-rule="evenodd" d="M253.975 348.697C255.2 347.614 257.012 348.975 256.234 350.439C254.485 353.727 252.69 356.844 250.343 359.751C248.92 361.513 247.395 363.181 245.85 364.829C249.815 368.255 253.216 372.508 256.427 376.494C260.533 381.592 264.416 386.906 269.025 391.571C273.572 396.171 278.598 399.387 284.676 401.532L285.904 401.958C292.009 404.098 298.535 406.989 301.977 412.762C302.655 413.901 301.289 415.308 300.14 414.597C294.16 410.899 287.133 410.155 280.623 407.712C274.335 405.352 268.854 401.719 264.01 397.083C259.175 392.454 255.115 387.188 250.88 382.034C246.693 376.937 242.184 372.584 237.231 368.271C229.587 373.407 220.862 375.641 211.989 377.836L211.021 378.075C202.138 380.272 193.303 382.822 184.97 386.647C177.622 390.019 170.396 394.045 164.411 399.532C158.058 405.354 153.113 412.791 148.587 420.064C138.464 436.335 131.346 454.16 125.081 472.202C118.564 490.969 113.113 510.111 108.712 529.481C106.474 539.334 104.657 549.256 103.163 559.248C102.444 564.061 101.805 568.883 101.244 573.717C100.645 578.878 100.507 584.188 98.9218 589.15C98.2421 591.277 96.6372 592.16 95.0308 592.085L94.7045 596.16C94.2718 601.593 93.8685 607.029 93.7322 612.496C93.5062 621.586 93.6087 630.651 94.2635 639.722L94.3562 640.959C94.8707 647.58 96.0204 655.018 101.005 659.866C106.168 664.887 114.107 666.466 121.065 666.556C137.271 666.767 152.871 659.12 167.212 652.411C181.982 645.502 196.348 637.833 210.369 629.515C217.51 625.28 224.574 620.903 231.547 616.399C234.969 614.187 238.367 611.939 241.74 609.654C243.672 608.346 245.502 606.911 247.469 605.75C246.505 604.854 246.075 603.446 246.882 602.216C241.197 597.288 238.831 588.494 238.555 581.379C238.331 575.635 239.178 569.908 239.846 564.218C240.183 561.35 240.599 558.486 241.031 555.629C241.202 554.501 241.332 553.294 241.532 552.103C226.182 560.527 210.402 568.029 194.204 574.694C185.901 578.111 177.492 581.182 168.967 583.997L167.239 584.565C159.161 587.206 150.89 589.7 142.539 591.21C142.093 591.29 141.73 590.632 142.207 590.422C150.345 586.836 158.765 583.811 167.025 580.509L168.383 579.957V579.957C168.227 579.948 168.065 579.926 167.896 579.886C163.052 578.719 158.245 576.919 153.494 575.404C149.084 573.998 144.13 573.115 140.008 570.992C139.691 570.829 139.869 570.388 140.177 570.368C144.81 570.047 149.839 571.395 154.381 572.188L156.088 572.487C158.946 572.99 161.868 573.531 164.712 574.237C164.815 573.286 165.348 572.33 166.105 571.77C174.44 565.605 173.594 553.155 174.485 543.974L175.146 537.158C176.309 525.229 177.539 513.301 179.408 501.462C179.507 500.829 180.487 501.011 180.491 501.608C180.587 516.284 179.478 530.893 178.922 545.547L178.836 547.951C178.528 556.993 178.287 566.382 172.585 573.339C173.382 572.874 174.461 572.874 175.106 573.641C175.9 574.584 176.358 575.644 176.344 576.683C181.497 574.526 186.627 572.312 191.732 570.053C208.146 562.791 224.216 554.665 239.86 545.871C241.544 544.925 243.144 545.669 243.977 546.916L244.097 546.899C244.117 546.896 244.138 546.894 244.159 546.894L244.278 546.889C244.282 546.889 244.287 546.889 244.291 546.889C246.493 545.681 249.493 546.541 251.383 548.304C251.439 548.357 251.486 548.414 251.536 548.471C253.929 547.398 256.163 545.95 258.19 544.115C262.339 540.36 265.853 535.716 268.916 531.06C274.558 522.485 279.35 512.948 286.971 505.889C293.164 500.153 300.84 496.583 308.894 494.341C308.86 494.106 308.95 493.856 309.113 493.689C309.527 493.266 309.822 493.119 310.356 493.376C310.399 493.397 310.424 493.426 310.442 493.456L311.228 492.115C311.656 491.388 312.097 490.655 312.25 490.462C313.164 489.312 314.105 488.171 315.06 487.054C316.68 485.163 318.526 483.297 320.663 481.985C325.343 479.114 330.263 480.739 335.074 482.308C337.981 483.256 340.878 484.236 343.78 485.198L344.079 485.296C346.243 485.99 348.775 486.598 349.743 488.887C350.126 489.793 350.185 490.733 350.007 491.646C370.559 486.426 393.385 488.824 413.441 494.951C414.21 495.186 414.979 495.819 415.141 496.649C417.439 508.418 418.463 520.486 417.423 532.456C416.526 542.787 414.233 552.912 409.914 562.371L409.668 562.905C405.609 571.671 399.174 582.477 389.348 585.225C383.415 586.884 376.853 585.905 370.801 585.602C364.92 585.306 358.909 585.263 353.083 584.339C347.895 583.517 343.349 581.195 340.143 576.982C337.377 573.347 335.921 568.955 334.728 564.585C334.181 564.759 333.639 564.943 333.105 565.152C330.851 566.031 328.941 567.45 327.214 569.12C323.568 572.646 320.74 576.929 316.925 580.294C313.472 583.34 309.537 585.709 305.316 587.53C296.57 591.304 287.187 592.813 277.935 594.813L277.29 594.953C270.325 596.479 263.216 598.353 257.068 601.975C256.948 603.041 256.462 604.044 255.682 604.701C256.767 605.717 257.226 607.328 256.273 608.839C253.612 613.057 249.027 615.457 244.912 618.154L244.644 618.331C240.595 621.011 236.511 623.639 232.394 626.212C224.025 631.446 215.48 636.391 206.814 641.118C192.877 648.722 178.641 655.895 164.146 662.401C165.016 666.675 164.698 671.083 165.352 675.386L165.452 675.999C165.732 677.596 165.354 678.932 164.253 679.976L164.137 680.083L164.139 680.068L164.035 680.163L164.001 680.192L164.012 680.183C163.885 680.299 163.754 680.407 163.621 680.499L163.451 680.609V680.609C162.39 681.252 161.024 681.245 159.938 680.677L159.814 680.609L159.605 680.489C158.17 679.665 157.18 677.622 157.776 675.999C159.239 672.011 159.792 667.755 161.143 663.741L160.071 664.219V664.219L158.658 664.834C143.377 671.433 126.403 676.99 109.754 672.492C102.397 670.503 95.5213 666.298 91.8404 659.443C88.2183 652.697 87.7064 644.865 87.5141 637.362C87.2768 628.102 87.7739 618.7 88.9968 609.519C89.8176 603.356 90.8103 597.076 92.3416 590.977C91.554 590.283 90.975 589.288 90.8221 588.055C90.0994 582.23 91.3642 576.173 92.1386 570.378C92.895 564.72 93.7307 559.073 94.6758 553.443C96.584 542.074 98.8011 530.729 101.382 519.493C105.976 499.497 112.042 479.855 119.346 460.683L119.985 459.013C126.734 441.49 134.548 424.339 145.429 408.945C150.634 401.58 156.136 394.902 163.491 389.595C170.381 384.622 178.153 381.041 186.173 378.305C194.202 375.566 202.455 373.731 210.853 372.589C219.383 371.43 228.386 370.719 236.342 367.225C235.336 365.423 236.199 362.991 237.893 361.873C243.594 358.112 248.865 353.219 253.975 348.697ZM436.461 512.255C436.699 511.892 437.267 512.121 437.162 512.55C434.389 523.893 431.786 535.26 430.087 546.82C427.019 567.684 427.583 588.821 427.834 609.84L427.847 610.927C427.976 622.249 428.155 633.572 428.53 644.889C428.719 650.608 429.093 656.384 428.89 662.106C428.779 665.211 427.95 668.147 427.657 671.214C427.399 673.896 427.628 676.62 427.757 679.305C427.843 681.091 425.204 681.015 425.024 679.305L424.795 677.094C424.496 674.296 424.128 671.515 423.21 668.836C422.105 665.615 421.575 662.451 421.192 659.069C420.606 653.886 420.345 648.651 420.118 643.432L419.963 639.822C419.018 618.01 419.051 596.096 420.582 574.307L420.694 572.751C422.21 552.155 424.84 529.901 436.461 512.255ZM377.361 382.446C376.637 382.149 376.89 381.055 377.692 381.246L379.151 381.593C389.837 384.149 400.329 386.919 410.304 391.675C420.285 396.435 428.735 403.54 435.449 412.277C448.501 429.26 453.925 449.9 458.207 470.521C462.965 493.434 467.298 516.431 472.098 539.337L472.989 543.604C477.43 564.939 481.624 586.285 484.713 607.872L484.935 609.438C488.051 631.636 489.925 654.604 486.525 676.86C485.853 681.263 478.516 680.167 478.803 675.816C479.631 663.24 480.224 650.729 479.651 638.125C479.077 625.518 477.893 612.966 476.128 600.469C474.643 589.952 472.429 579.566 470.469 569.133L470.162 567.485C468.522 558.611 466.83 549.746 465.142 540.881L462.62 527.607C458.84 507.732 454.986 487.839 450.631 468.089L450.373 466.926C446.111 447.925 439.828 428.021 427.045 412.932C414.072 397.619 395.501 389.907 377.361 382.446ZM330.223 583.992C330.535 583.298 331.626 583.374 331.962 583.992C333.276 586.414 333.422 589.506 333.671 592.24L333.697 592.522C334.013 595.859 334.293 599.207 334.464 602.554C334.789 608.908 334.944 615.253 334.924 621.615C334.904 628.134 334.773 634.646 334.421 641.155L334.325 642.9C334.004 648.557 333.465 654.867 330.774 659.812C329.795 661.61 327.134 661.082 326.567 659.263C324.711 653.31 325.664 646.251 326.14 640.154L326.51 635.396C326.876 630.638 327.225 625.877 327.502 621.114C327.882 614.596 328.195 608.072 328.496 601.551C328.594 599.433 328.7 597.315 328.812 595.197L328.984 592.02C329.13 589.363 329.118 586.448 330.223 583.992ZM121.478 592.429L122.3 591.637C124.823 589.171 128.011 585.373 131.741 585.609C133.228 585.703 134.176 586.936 133.867 588.397C133.209 591.521 130.018 593.142 127.721 595.049C125.205 597.138 122.833 599.37 120.466 601.624C118.366 603.623 116.347 605.678 114.376 607.798L113.639 608.596C112.932 609.366 107.901 613.91 108.445 615.089L108.475 615.142C108.626 615.368 108.374 615.678 108.123 615.599C105.95 614.914 106.086 613.054 106.907 611.17C108.485 607.55 111.249 604.201 113.663 601.109C116.07 598.025 118.675 595.153 121.478 592.429V592.429ZM338.095 501.64C336.415 497.674 330.226 497.757 326.713 497.994C317.865 498.591 308.292 500.827 300.419 504.957C292.257 509.239 286.759 516.099 281.84 523.686L281.609 524.042C276.815 531.485 272.197 540.296 264.689 545.414C260.865 548.022 256.399 550.402 251.76 551.434C251.441 551.993 250.925 552.436 250.248 552.597L249.934 552.668C248.612 552.96 246.559 553.282 244.786 553.089C244.798 553.956 244.789 554.815 244.811 555.636C244.873 557.988 244.9 560.35 244.9 562.704C244.901 567.635 244.635 572.577 244.841 577.508C245.024 581.869 245.641 586.426 247.738 590.325C249.276 593.185 251.305 595.078 253.756 596.885C259.784 593.216 266.6 590.98 273.517 589.298C281.884 587.265 290.45 585.908 298.626 583.151C302.561 581.823 306.344 580.086 309.772 577.727C313.41 575.222 316.188 571.832 319.047 568.517L319.494 568.002C322.412 564.66 325.595 561.462 329.719 559.651C333.27 558.09 337.95 557.812 341.055 555.397C342.678 554.133 342.814 552.3 342.985 550.422C340.997 550.706 338.892 550.251 336.91 550.019L335.883 549.899C334.009 549.677 332.178 549.432 330.333 548.956C329.991 548.867 329.991 548.352 330.333 548.263C332.513 547.701 334.674 547.461 336.91 547.2L337.435 547.134C339.457 546.87 341.583 546.47 343.567 546.914C343.923 545.562 344.437 544.271 345.158 542.977C346.17 541.161 348.085 539.101 348.344 536.978C348.421 536.345 348.274 535.597 347.974 535.037L347.871 534.846C347.746 534.62 347.597 534.394 347.379 534.253C347.355 534.281 347.303 534.313 347.192 534.348C345.666 534.828 344.334 534.082 343.627 532.932C340.626 533.303 337.352 533.178 334.538 533.302L331.693 533.44C328.653 533.579 325.474 533.64 322.618 533.027C322.219 532.941 322.098 532.278 322.497 532.108C326.009 530.608 330.27 530.129 334.03 529.553C336.13 529.231 338.245 528.985 340.351 528.702C341.754 528.513 343.242 528.201 344.695 528.126C348.338 523.597 346.375 516.452 341.305 514.502C339.458 515.313 337.798 514.841 335.78 514.668C333.766 514.496 331.747 514.379 329.725 514.387C325.672 514.405 321.378 515.47 317.366 515.012C316.713 514.936 316.106 514.069 316.755 513.54C319.827 511.037 324.229 510.221 328.128 509.687L328.936 509.579C330.244 509.408 331.833 509.158 333.482 509.01C333.855 508.283 334.524 507.734 335.529 507.598C335.828 507.557 336.128 507.533 336.428 507.507L336.423 507.478V507.478C338.874 507.36 338.767 503.226 338.095 501.64ZM170.307 578.982C170.263 579.049 170.216 579.112 170.165 579.174L170.088 579.264L170.491 579.1L170.307 578.982V578.982ZM380.863 492.778C370.548 491.672 360.217 491.905 349.87 492.202C349.043 494.905 346.162 497.209 343.371 497.296C345.557 500.618 345.783 505.115 344.25 508.639C347.504 509.932 350.308 512.256 352.01 515.566C354.371 520.154 354.062 525.26 351.729 529.5C353.72 531.3 354.895 534.223 354.777 536.978C354.646 540.051 352.812 542.675 351.289 545.219C349.642 547.969 349.587 550.392 349.081 553.472C348.341 557.981 345.296 560.716 341.378 562.424L341.586 563.242C342.596 567.169 343.853 571.312 346.74 574.184C350.454 577.878 356.216 577.844 361.123 578.078L361.36 578.089C365.853 578.314 370.345 578.576 374.836 578.831L378.205 579.019C383.377 579.303 388.344 579.337 392.566 575.923C399.458 570.349 404.184 561.125 407.175 552.96C413.452 535.82 413.527 517.012 410.646 499.161C400.982 496.051 390.955 493.861 380.863 492.778ZM295.074 521.214L295.15 521.219C297.274 521.461 298.733 523.179 299.253 525.216C300.008 528.178 299.638 530.855 301.454 533.528C303.322 536.277 304.471 538.478 304.742 541.874C304.854 543.272 304.803 544.666 305.114 546.033L305.34 546.992C305.58 548.014 305.776 548.998 305.657 550.095C305.548 551.096 305.06 551.875 304.055 552.196C300.78 553.242 298.252 550.832 297.406 547.784C296.675 545.152 297.651 542.015 296.62 539.543C296.048 538.172 294.995 537.026 294.399 535.647C293.81 534.279 293.514 532.851 293.419 531.364C293.239 528.553 295.729 525.175 294.34 522.628C294.044 522.085 294.379 521.197 295.074 521.214ZM251.575 492.203C253.792 491.753 256.308 490.722 258.495 491.579C259.619 492.02 260.175 493.389 259.225 494.341C257.576 495.991 255.179 496.083 252.958 496.473L252.763 496.508C250.137 496.993 247.506 497.453 244.871 497.889C239.915 498.709 234.947 499.434 229.961 500.05C224.841 500.683 219.706 501.246 214.564 501.67L212.573 501.833C208.229 502.18 203.71 502.442 199.448 501.777C198.829 501.681 198.928 500.78 199.448 500.623C204.117 499.211 209.238 498.833 214.065 498.236C219.197 497.6 224.32 496.928 229.43 496.131C234.532 495.336 239.627 494.482 244.703 493.538C246.997 493.112 249.288 492.667 251.575 492.203ZM331.592 487.672C329.646 486.984 327.505 485.964 325.397 486.306C321.76 486.894 318.524 490.432 315.646 492.762L317.091 492.482C324.486 491.062 334.279 489.533 340.487 494.229C340.503 494.201 340.515 494.174 340.533 494.147C341.034 493.387 341.615 492.794 342.248 492.144C342.309 492.087 342.367 492.028 342.425 491.968L342.767 491.605L341.985 491.334C340.31 490.743 338.326 489.98 338.012 489.868L337.991 489.861C335.855 489.138 333.717 488.424 331.592 487.672ZM270.832 332.873C270.528 328.964 276.62 328.996 276.921 332.873C277.58 341.336 275.672 349.719 271.567 357.139C271.537 357.193 271.504 357.241 271.472 357.292C274.04 358.626 276.636 359.906 279.291 361.051C282.686 362.514 286.146 363.847 289.667 364.978C292.852 366.002 296.777 366.406 299.454 368.536C305.101 373.026 302.98 382.346 301.894 388.387L301.724 389.34C301.183 392.449 300.792 395.638 302.104 398.621C303.506 401.808 306.34 404.172 308.868 406.452L309.378 406.914C311.618 408.952 314.177 411.428 315.82 414.19C317.319 411.094 319.363 408.563 321.525 405.715C323.067 403.682 321.969 403.012 320.861 401.026C319.795 399.115 319.274 397.077 319.608 394.897C320.223 390.87 323.446 387.961 326.654 385.776C330.442 383.196 334.67 381.284 338.586 378.884C346.633 373.953 354.47 368.316 361.53 362.054C361.725 361.881 362.063 362.108 361.907 362.344C356.33 370.816 349.79 378.137 341.752 384.351C338.493 386.871 335.07 388.961 331.623 391.158L330.633 391.793C329.249 392.688 327.523 393.884 326.897 395.409C326.267 396.941 327.61 398.099 328.333 399.368C330.627 403.401 329.52 407.163 326.8 410.583L326.673 410.74C323.97 414.067 321.921 417.161 320.941 421.412C318.835 430.543 321.768 440.054 324.838 448.626L324.959 448.964C326.62 453.584 328.385 458.171 329.828 462.865L330.225 464.163C331.532 468.482 332.602 472.742 331.136 477.183C330.637 478.693 328.575 479.05 327.718 477.629C324.696 472.616 323.942 466.584 322.048 461.073C320.202 455.702 318.082 450.427 316.298 445.034C314.002 438.09 312.465 430.616 313.299 423.332C313.275 423.29 313.248 423.25 313.227 423.205L312.643 421.928C311.049 418.471 309.509 415.451 306.61 412.695C303.586 409.82 300.304 407.275 297.925 403.794C292.757 396.234 295.953 387.825 296.578 379.559L296.649 378.545C296.763 376.829 296.825 374.496 295.702 373.308C294.439 371.971 291.478 371.63 289.803 371.038C285.473 369.508 281.206 367.725 277.142 365.584C273.273 363.546 269.526 361.294 266.037 358.657L264.268 357.328C261.478 355.225 258.585 352.93 256.715 350.068C256.499 349.738 256.866 349.206 257.256 349.364C260.378 350.629 263.23 352.642 266.151 354.393C266.197 354.286 266.25 354.178 266.309 354.07C269.923 347.538 271.409 340.302 270.832 332.873ZM370.555 377.623C371.799 374.217 377.468 374.48 377.242 378.527C377.068 381.637 375.746 384.443 374.538 387.266L374.409 387.569C373.161 390.51 371.72 393.272 369.995 395.968C366.7 401.121 362.84 405.904 358.717 410.418C354.98 414.51 350.074 417.012 344.421 416.597C342.039 416.421 339.635 415.816 337.548 414.628C335.069 413.216 332.376 408.978 329.214 410.004C328.908 410.103 328.622 409.656 328.887 409.444C332.538 406.507 336.682 411.06 340.178 412.158C345.445 413.81 350.851 411.983 354.241 407.73C357.781 403.29 361.039 398.319 364.014 393.485C365.524 391.03 366.903 388.482 368.093 385.856C369.295 383.206 369.568 380.326 370.555 377.623ZM362.064 356.66C361.911 356.19 362.496 355.743 362.91 356.011C365.309 357.571 367.388 359.632 369.601 361.439C372.056 363.443 374.53 365.406 377.042 367.339C380.703 370.158 376.456 375.348 373.233 372.268C368.823 368.056 363.992 362.548 362.064 356.66ZM348.892 340.173C349.867 336.42 355.632 337.968 354.791 341.677L354.764 341.79C353.173 347.918 355.439 354.156 360.277 358.128L360.455 358.273C363.515 360.719 359.179 364.995 356.149 362.572C349.533 357.285 346.781 348.303 348.892 340.173Z" fill="black"/>
<path fill-rule="evenodd" clip-rule="evenodd" d="M395.457 206.461C390.838 186.974 380.739 168.839 364.572 154.182C315.92 106.045 226.574 132.173 226.978 204.712C225.233 213.185 224.525 221.896 225.103 230.537C225.342 234.224 226.936 239.369 224.794 242.687C219.962 248.894 217.154 253.469 218.799 261.726C220.173 268.936 225.075 274.043 231.692 276.759C235.66 277.898 239.425 280.38 240.894 284.164C249.727 300.347 256.27 313.808 270.194 324.837C273.787 327.676 310.639 344.706 322.781 344.706C358.328 344.706 403.131 331.819 403.875 292.082C404.003 283.354 402.473 274.524 401.513 265.866C399.176 246.105 400 225.629 395.457 206.461Z" fill="#AE5D29"/>
<path fill-rule="evenodd" clip-rule="evenodd" d="M394.657 196.714C394.669 196.473 395.014 196.419 395.08 196.657C396.402 201.348 397.15 206.127 398.184 210.892C399.179 215.481 400.119 220.083 400.901 224.713C402.376 233.45 403.619 242.21 404.776 250.993L405.063 253.189C407.073 268.644 410.392 284.743 407.49 300.288C405.013 313.552 396.709 324.242 386.007 332.08C375.874 339.501 363.588 344.263 351.389 346.971C338.296 349.877 322.777 350.745 312.124 341.136C307.86 337.289 313.673 329.655 318.3 333.127C329.163 341.278 342.983 338.875 355.241 335.632L355.612 335.533C366.371 332.665 377.202 328.318 385.743 320.985C395.187 312.876 399.856 301.623 400.395 289.281C400.698 282.347 400.052 275.421 399.355 268.527L399.278 267.762C398.478 259.878 397.639 251.999 396.865 244.113C396.158 236.922 395.549 229.688 395.227 222.465L395.076 218.822C394.763 211.477 394.342 204.024 394.657 196.714ZM267.249 135.682C284.927 126.471 305.243 123.175 324.917 126.266C343.83 129.238 361.187 139.004 374.161 153.009C380.496 159.847 386.118 167.756 389.711 176.396C391.495 180.689 392.893 185.167 393.637 189.766C394.02 192.13 394.396 194.579 394.468 196.976C394.534 199.196 393.883 201.277 393.96 203.533C393.972 203.886 393.431 203.954 393.349 203.616C392.735 201.1 391.254 199.198 390.325 196.809C389.631 195.025 388.843 193.283 388.042 191.547L387.353 190.059C385.353 185.734 382.963 181.587 380.599 177.455C375.837 169.133 369.728 161.569 362.575 155.187C350.016 143.982 333.903 136.749 317.086 135.447C299.631 134.094 281.926 138.258 267.02 147.481C252.114 156.704 240.843 171.041 234.991 187.549C232.039 195.879 230.408 204.558 230.029 213.383C229.837 217.85 230.016 222.355 230.329 226.813L230.484 228.939C230.666 231.489 230.791 234.029 230.411 236.517C233.099 235.678 235.917 235.33 238.746 235.745C242.949 236.362 245.46 238.086 247.345 241.844C247.443 242.041 247.246 242.237 247.05 242.139C244.606 240.918 240.652 241.561 238.063 242.201C235.37 242.867 232.943 244.025 230.655 245.591C226.42 248.487 223.101 252.974 222.286 258.122C221.499 263.095 223.538 268.13 226.965 271.694C228.729 273.53 230.837 275.117 233.198 276.105C236.062 277.306 238.898 277.269 241.432 279.251C242.999 280.477 242.621 282.573 241.558 283.934C246.905 289.802 251.647 296.221 256.993 302.111C259.472 304.842 261.93 307.576 264.305 310.394L265.191 311.455C267.563 314.319 271.335 317.344 272.419 320.946C273.093 323.187 270.695 326.117 268.271 325.096C264.554 323.53 261.9 319.454 259.387 316.327L259.224 316.125C256.589 312.885 254.25 309.465 252.112 305.881L251.409 304.7C247.542 298.192 243.708 291.442 241.243 284.292C241.08 284.46 240.907 284.612 240.726 284.741C237.173 287.269 232.01 285.326 228.462 283.684C225.113 282.135 222.043 279.804 219.65 276.994C214.445 270.884 212.046 262.972 213.784 255.042C215.256 248.325 219.908 241.791 226.007 238.394C223.192 235.15 222.026 230.778 221.251 226.504C220.26 221.047 220.063 215.455 220.332 209.922C220.868 198.902 223.702 188.038 228.083 177.946C235.921 159.889 249.779 144.785 267.249 135.682ZM230.042 256.176C233.753 255.481 237.21 255.313 240.789 256.884C244.671 258.589 247.403 261.405 249.943 264.703C252.832 268.455 245.426 272.554 243.559 267.573L243.504 267.419C243.004 265.945 242.108 264.519 240.974 263.207C240.633 263.729 240.178 264.189 239.643 264.452C238.996 264.771 238.007 264.55 237.851 263.722C237.678 262.803 237.869 261.69 238.399 260.912L238.472 260.806V260.806C235.897 258.732 232.801 257.218 230.042 256.731C229.767 256.682 229.77 256.228 230.042 256.176Z" fill="black"/>
<path fill-rule="evenodd" clip-rule="evenodd" d="M359.055 309.604C355.287 310.694 351.243 310.791 347.403 309.666C343.919 308.645 340.343 306.398 337.779 303.425C335.502 300.784 334.027 297.575 334.085 294.149C334.091 293.758 334.231 293.431 334.447 293.178C334.679 292.905 335.003 292.718 335.35 292.636C335.707 292.553 336.084 292.582 336.406 292.728C336.697 292.86 336.946 293.084 337.102 293.412C337.496 293.929 337.888 294.438 338.282 294.933C341.45 298.839 344.518 301.759 349.281 302.806C351.866 303.374 354.447 303.122 356.816 302.255C359.351 301.327 361.643 299.695 363.439 297.607C364.25 296.664 365.208 296.279 366.145 296.272C367.207 296.265 368.257 296.757 369.047 297.545C369.824 298.319 370.345 299.371 370.392 300.471C370.433 301.437 370.118 302.446 369.279 303.346C366.514 306.311 362.931 308.483 359.055 309.604ZM358.939 260.677C362.801 263.021 368.686 268.488 364.531 274.3C359.64 279.425 352.599 273.549 349.129 270.892C345.912 268.832 342.297 274.129 345.282 276.534C370.355 295.072 380.53 261.29 360.892 257.921C358.73 257.549 357.927 259.952 358.939 260.677ZM322.811 250.361C321.57 249.568 320.109 249.296 318.491 250.031C317.226 250.606 315.008 252.52 313.465 255.037C312.409 256.759 311.66 258.779 311.816 260.883C311.852 261.372 311.671 261.732 311.386 261.999C311.161 262.209 310.836 262.364 310.453 262.412C310.129 262.453 309.766 262.416 309.471 262.324C308.909 262.149 308.612 261.785 308.5 261.488C307.419 258.621 307.884 255.423 309.096 252.537C310.73 248.642 313.699 245.38 315.644 244.328C318.972 242.528 322.899 242.445 326.232 244.279C329.069 245.84 330.843 248.361 332.608 250.93C332.983 251.476 333.355 252.018 333.74 252.551C334.511 253.618 334.588 254.676 334.289 255.584C333.958 256.589 333.115 257.438 332.06 257.882C331.085 258.292 329.954 258.35 328.952 257.928C328.107 257.572 327.33 256.878 326.839 255.699C326.012 253.715 324.634 251.525 322.811 250.361V250.361ZM385.854 254.776C385.004 255.219 384.339 255.352 383.396 255.07C382.874 254.913 382.359 254.614 381.955 254.211C381.555 253.811 381.267 253.315 381.155 252.764C380.879 251.404 380.134 250.131 379.072 249.301C378.165 248.592 377.019 248.216 375.749 248.428C374.378 248.657 373.072 249.535 372.172 250.57C371.872 250.916 371.636 251.31 371.399 251.7C370.956 252.431 370.525 253.11 369.914 253.647C369.682 253.851 369.333 253.993 368.995 253.993C368.857 253.993 368.718 253.97 368.585 253.929C367.221 252.561 366.958 251.524 367.002 250.495C367.048 249.415 367.474 248.323 368.163 247.303C369.778 244.912 372.844 242.951 374.913 242.507C377.747 241.899 380.561 242.629 382.817 244.21C385.139 245.836 386.859 248.361 387.395 251.206C387.524 251.892 387.469 252.631 387.208 253.273C386.953 253.9 386.508 254.436 385.854 254.776ZM329.06 224.865C327.36 226.52 325.347 226.776 323.311 227.004C322.179 227.132 321.276 227.235 320.387 227.435C317.945 227.986 315.53 228.815 313.327 230.01C311.024 231.258 308.515 232.764 306.709 234.694C306.28 235.153 305.875 235.634 305.47 236.117C305.1 236.557 304.744 236.981 304.369 237.39C303.938 237.859 303.529 238.351 303.122 238.842C302.87 239.256 302.821 239.357 302.77 239.463C302.694 239.623 302.605 239.801 302.504 239.992C302.365 240.254 302.202 240.541 302.032 240.801C301.749 241.276 301.597 241.407 301.466 241.465C301.248 241.562 301.041 241.61 300.841 241.584C300.653 241.56 300.476 241.47 300.301 241.322C299.428 240.585 299.17 239.376 299.197 238.093C299.237 236.146 299.956 233.99 300.619 232.664C302.161 229.584 304.299 226.383 306.87 224.084C309.803 221.46 313.013 219.474 316.699 218.105C318.99 217.254 321.643 216.473 324.139 216.572C325.935 216.643 327.65 217.176 329.067 218.508C329.936 219.326 330.354 220.489 330.354 221.651C330.354 222.836 329.92 224.028 329.06 224.865ZM389.313 240.017C389.205 240.194 389.055 240.316 388.888 240.389C388.714 240.466 388.519 240.488 388.332 240.457C388.146 240.425 387.968 240.341 387.828 240.212C387.693 240.089 387.591 239.925 387.545 239.724C386.416 234.772 384.224 231.088 379.545 228.712C377.243 227.543 374.596 226.8 372.091 226.208C371.363 226.036 370.593 225.925 369.818 225.812C367.39 225.457 364.944 225.052 363.361 223.092C362.407 221.911 362.007 220.401 362.233 219.02C362.447 217.72 363.207 216.527 364.591 215.813C368.034 214.035 372.313 215.78 375.79 217.266C376.048 217.376 376.301 217.484 376.549 217.589C379.949 219.022 383.051 220.914 385.6 223.62C387.623 225.767 389.497 228.94 390.252 232.205C390.88 234.921 390.732 237.694 389.313 240.017Z" fill="black"/>
<path fill-rule="evenodd" clip-rule="evenodd" d="M313.374 313.196C317.515 303.509 326.552 296.389 336.958 293.785C344.599 291.879 352.618 291.94 360.407 292.696C364.488 293.09 368.865 293.413 372.711 294.926C375.996 296.219 378.672 298.663 380.684 301.532C383.08 304.932 384.709 308.823 385.853 312.811C386.016 313.378 386.168 313.949 386.311 314.524C385.814 317.533 384.757 320.094 381.966 321.986C379.243 323.833 375.994 324.589 372.754 324.857C372.437 324.705 372.13 324.548 371.848 324.388C366.8 321.502 363.247 314.682 356.876 315.605C351.19 316.429 347.447 323.574 344.066 327.764C333.212 329.026 322.367 325.769 313.536 319.571C313.087 317.45 313.061 315.311 313.374 313.196M393.688 305.847C392.82 303.414 391.726 301.057 390.43 298.837C386.144 291.495 379.566 285.645 371.756 282.301C353.282 274.402 329.378 279.97 314.458 292.926C309.362 297.355 304.209 303.864 302.651 310.865C302.185 310.957 301.746 311.199 301.384 311.539C290.605 304.762 279.505 298.241 270.819 288.846C264.511 282.02 260.123 273.942 257.437 265.065C257.217 264.335 256.037 264.441 256.073 265.25C256.083 265.439 256.093 265.628 256.104 265.817C255.991 265.469 255.46 265.648 255.419 265.986C253.974 276.769 252.166 288.202 253.831 299.042C254.827 305.51 257.769 310.245 261.702 315.358C265.915 320.839 270.686 325.937 275.564 330.825C278.659 333.928 281.892 337.508 285.682 339.783C290.09 342.426 295.09 344.436 299.794 346.476C304.58 348.557 309.438 350.479 314.387 352.146C324.28 355.49 334.506 357.801 344.91 358.814C353.241 359.622 362.762 360.502 370.745 357.372C376.864 354.974 381.803 350.638 385.72 345.423C389.985 339.742 393.357 333.271 395.221 326.448C397.157 319.36 394.096 306.99 393.688 305.847" fill="black"/>
<path fill-rule="evenodd" clip-rule="evenodd" d="M404.711 263.788C398.501 270.195 388.136 272.034 379.874 268.597C358.662 259.746 369.044 232.14 385.404 224.726C387.448 224.217 390.177 223.01 392.666 222.736C392.891 222.626 393.381 222.945 393.975 222.643C412.014 224.655 416.122 252.62 404.711 263.788M336.291 265.427C329.327 274.652 316.379 277.498 305.8 273.21C284.902 264.991 292.314 240.51 306.612 230.913C336.817 219.579 349.289 248.419 336.291 265.427M290.987 244.988C290.968 244.979 290.948 244.974 290.928 244.965C291.039 244.916 291.149 244.868 291.259 244.818C291.223 244.912 291.184 245.004 291.15 245.098C291.095 245.06 291.048 245.017 290.987 244.988M419.088 235.016C417.383 235.02 414.92 235.3 413.509 236.481C410.028 224.757 397.179 213.907 386.005 221.819C377.206 224.645 370.676 230.913 366.965 239.245C360.274 235.271 349.752 236.968 343.95 242.224C340.15 229.684 330.798 225.293 319.666 224.645C307.516 222.658 295.406 234.442 291.628 243.895C288.486 243.538 283.792 242.539 280.836 244.476C261.653 239.452 228.115 236.682 224.216 239.473C221.436 240.538 219.911 247.089 223.793 247.443C227.176 246.963 223.398 242.642 226.808 242.171C244.976 241.046 262.613 244.7 280.589 246.234C282.194 248.389 287.379 249.111 290.146 248.244C285.789 264.28 295.194 275.19 309.287 278.458C331.109 283.464 350.094 263.969 344.388 243.692C350.998 240.408 358.602 240.549 365.803 242.279C353.77 286.506 425.094 284.521 413.955 237.996C421.368 241.679 422.978 235.759 419.088 235.016" fill="black"/>
</svg>
