<svg width="402" height="560" viewBox="0 0 402 560" fill="none" xmlns="http://www.w3.org/2000/svg">
<path d="M341.079 343.881H223.958V487.916H341.079V343.881Z" fill="#C93305"/>
<path fill-rule="evenodd" clip-rule="evenodd" d="M189.797 202.999C202.422 193.398 234.117 189.08 247.592 198.325C260.901 207.608 262.352 222.62 268.553 236.43C274.405 233.674 284.068 237.621 285.764 243.043C287.868 245.6 287.963 252.785 289.414 256.223C352.547 266.259 362.132 315.415 369.731 371.219C379.784 427.847 402.605 484.351 392.698 542.622C393.989 544.488 395.007 546.301 395.948 548.454C398.203 552.286 395.298 557.71 390.75 557.5C384.863 556.984 379.034 556.279 373.119 556.059C356.722 555.49 340.311 555.558 323.908 555.766L321.671 555.795C239.005 556.823 156.343 558.848 73.673 559.385C70.674 559.389 69.206 556.703 69.606 554.053C70.413 548.718 71.161 543.381 71.942 538.043C52.389 543.201 31.602 544.499 12.1033 538.586C10.7393 537.198 15.281 537.95 16.002 537.74C-1.9425 525.494 3.4165 499.697 5.006 481.116C14.89 417.449 18.375 347.006 56.564 292.677C73.085 270.506 97.306 252.952 125.138 249.003L125.911 248.897C134.049 247.813 143.119 247.464 150.234 243.043C158.237 236.663 161.647 224.874 170.066 224.764C172.846 224.727 176.628 228.24 180.698 230.624C181.001 225.378 183.832 220.951 184.457 216.884L184.508 216.536C185.16 211.794 184.267 207.528 189.797 202.999ZM325.477 372.902C307.734 360.592 261.902 366.777 260.853 367.467C258.543 368.984 257.548 369.118 256.299 371.089C255.065 371.252 253.833 371.422 252.601 371.596C250.13 372.402 251.961 375.437 254.815 374.355C253.099 381.747 258.15 387.005 260.161 394.314C260.814 396.687 260.185 400.955 260.161 403.38C260.356 406.471 263.779 410.123 263.208 413.225C261.18 424.252 250.175 435.008 254.815 445.702C257.889 451.742 267.134 454.822 273.28 456.875C286.015 461.756 308.203 456.691 315.602 445.702C319.549 439.841 324.121 425.055 326.474 420.469L326.996 413.194C328.282 395.11 329.426 375.642 325.477 372.902Z" fill="#AE5D29"/>
<path fill-rule="evenodd" clip-rule="evenodd" d="M169.41 224.797L174.487 227.908L203.976 242.466C209.693 244.065 212.551 245.98 212.551 248.214V270.952C212.551 273.995 217.916 280.892 228.646 291.642L238.558 281.773L238.337 280.481C237.393 274.913 236.922 271.189 236.922 269.308C236.922 267.285 246.62 259.605 266.015 246.269L274.501 238.291L273.596 235.543C278.828 235.79 284.502 239.008 285.764 243.043C287.868 245.6 287.963 252.785 289.414 256.223C352.547 266.259 362.132 315.415 369.731 371.22C379.784 427.847 402.605 484.352 392.698 542.622C393.989 544.488 395.007 546.301 395.948 548.454C398.203 552.286 395.298 557.71 390.75 557.5C384.863 556.984 379.034 556.279 373.119 556.059C356.722 555.49 340.311 555.558 323.908 555.766L321.671 555.795C239.005 556.823 156.343 558.848 73.673 559.385C70.674 559.389 69.206 556.703 69.606 554.053C70.413 548.718 71.161 543.381 71.942 538.043C52.389 543.201 31.602 544.499 12.1033 538.586C10.7393 537.198 15.281 537.95 16.002 537.74C-1.9425 525.494 3.4165 499.697 5.006 481.116C14.89 417.449 18.375 347.006 56.564 292.677C73.085 270.506 97.306 252.952 125.138 249.003L125.911 248.897L126.688 248.796C134.623 247.787 143.345 247.324 150.234 243.043C158.025 236.831 161.464 225.493 169.41 224.797ZM240.069 358.262C237.177 358.262 231.253 362.747 222.299 371.719L221.51 372.083C210.685 377.104 203.514 381.46 199.997 385.15L199.871 385.283C196.318 389.09 189.281 399.213 178.761 415.653L163.527 424.65H157.763L153.659 454.378L163.527 475.605L185.879 468.086L222.299 458.499L243.197 437.325L254.986 433.373C253.556 437.5 253.037 441.606 254.815 445.702C257.889 451.742 267.134 454.822 273.28 456.875C286.015 461.756 308.203 456.691 315.602 445.702C319.549 439.841 324.121 425.055 326.474 420.469L327.149 411.018C328.365 393.579 329.268 375.532 325.477 372.902C307.734 360.592 261.902 366.777 260.853 367.467C258.543 368.984 257.548 369.118 256.299 371.089L255.652 371.175L259.289 366.249L258.001 365.562C248.812 360.695 242.834 358.262 240.069 358.262ZM254.815 374.355C253.172 381.432 257.732 386.553 259.888 393.39L254.378 382.856V374.491C254.521 374.456 254.666 374.411 254.815 374.355Z" fill="#2C1B99"/>
<path fill-rule="evenodd" clip-rule="evenodd" d="M166.975 223.697C168.2 222.614 170.012 223.975 169.234 225.439C167.485 228.727 165.69 231.844 163.343 234.751C161.92 236.513 160.395 238.181 158.85 239.829C162.815 243.255 166.216 247.508 169.427 251.494C173.533 256.592 177.416 261.906 182.025 266.571C186.572 271.171 191.598 274.387 197.676 276.532L198.904 276.958C205.009 279.098 211.535 281.989 214.977 287.762C215.655 288.901 214.289 290.308 213.14 289.597C207.16 285.899 200.133 285.155 193.623 282.712C187.335 280.352 181.854 276.719 177.01 272.083C172.175 267.454 168.115 262.188 163.88 257.034C159.693 251.937 155.184 247.584 150.231 243.271C142.587 248.407 133.862 250.641 124.989 252.836L124.021 253.075C115.138 255.272 106.303 257.822 97.97 261.647C90.622 265.019 83.396 269.045 77.411 274.532C71.058 280.354 66.113 287.791 61.587 295.064C51.464 311.335 44.346 329.16 38.081 347.202C31.564 365.969 26.113 385.111 21.712 404.481C19.474 414.334 17.657 424.256 16.163 434.248C15.444 439.061 14.805 443.883 14.244 448.717C13.645 453.878 13.507 459.188 11.9218 464.15C11.2421 466.277 9.6372 467.16 8.0308 467.085L7.7045 471.16C7.2718 476.593 6.8685 482.029 6.7322 487.496C6.5062 496.586 6.6087 505.651 7.2635 514.722L7.3562 515.959C7.8707 522.58 9.0204 530.018 14.005 534.866C19.168 539.887 27.107 541.466 34.065 541.556C50.271 541.767 65.871 534.12 80.212 527.411C94.982 520.502 109.348 512.833 123.369 504.515C130.51 500.28 137.574 495.903 144.547 491.399C147.969 489.187 151.367 486.939 154.74 484.654C156.672 483.346 158.502 481.911 160.469 480.75C159.505 479.854 159.075 478.446 159.882 477.216C154.197 472.288 151.831 463.494 151.555 456.379C151.331 450.635 152.178 444.908 152.846 439.218C153.183 436.35 153.599 433.486 154.031 430.629C154.202 429.501 154.332 428.294 154.532 427.103C139.182 435.527 123.402 443.029 107.204 449.694C98.901 453.111 90.492 456.182 81.967 458.997L80.239 459.565C72.161 462.206 63.89 464.7 55.539 466.21C55.093 466.29 54.73 465.632 55.207 465.422C63.345 461.836 71.765 458.811 80.025 455.509L81.383 454.957C81.227 454.948 81.065 454.926 80.896 454.886C76.052 453.719 71.245 451.919 66.494 450.404C62.084 448.998 57.13 448.115 53.008 445.992C52.691 445.829 52.869 445.388 53.177 445.368C57.81 445.047 62.839 446.395 67.381 447.188L69.088 447.487C71.946 447.99 74.868 448.531 77.712 449.237C77.815 448.286 78.348 447.33 79.105 446.77C87.44 440.605 86.594 428.155 87.485 418.974L88.146 412.158C89.309 400.229 90.539 388.301 92.408 376.462C92.507 375.829 93.487 376.011 93.491 376.608C93.587 391.284 92.478 405.893 91.922 420.547L91.836 422.951C91.528 431.993 91.287 441.382 85.585 448.339C86.382 447.874 87.461 447.874 88.106 448.641C88.9 449.584 89.358 450.644 89.344 451.683C94.497 449.526 99.627 447.312 104.732 445.053C121.146 437.791 137.216 429.665 152.86 420.871C154.544 419.925 156.144 420.669 156.977 421.916L157.097 421.899C157.117 421.896 157.138 421.894 157.159 421.894L157.278 421.889C157.282 421.889 157.287 421.889 157.291 421.889C159.493 420.681 162.493 421.541 164.383 423.304C164.439 423.357 164.486 423.414 164.536 423.471C166.929 422.398 169.163 420.95 171.19 419.115C175.339 415.36 178.853 410.716 181.916 406.06C187.558 397.485 192.35 387.948 199.971 380.889C206.164 375.153 213.84 371.583 221.894 369.341C221.86 369.106 221.95 368.856 222.113 368.689C222.527 368.266 222.822 368.119 223.356 368.376C223.399 368.397 223.424 368.426 223.442 368.456L224.228 367.115C224.656 366.388 225.097 365.655 225.25 365.462C226.164 364.312 227.105 363.171 228.06 362.054C229.68 360.163 231.526 358.297 233.663 356.985C238.343 354.114 243.263 355.739 248.074 357.308C250.981 358.256 253.878 359.236 256.78 360.198L257.079 360.296C259.243 360.99 261.775 361.598 262.743 363.887C263.126 364.793 263.185 365.733 263.007 366.646C283.559 361.426 306.385 363.824 326.441 369.951C327.21 370.186 327.979 370.819 328.141 371.649C330.439 383.418 331.463 395.486 330.423 407.456C329.526 417.787 327.233 427.912 322.914 437.371L322.668 437.905C318.609 446.671 312.174 457.477 302.348 460.225C296.415 461.884 289.853 460.905 283.801 460.602C277.92 460.306 271.909 460.263 266.083 459.339C260.895 458.517 256.349 456.195 253.143 451.982C250.377 448.347 248.921 443.955 247.728 439.585C247.181 439.759 246.639 439.943 246.105 440.152C243.851 441.031 241.941 442.45 240.214 444.12C236.568 447.646 233.74 451.929 229.925 455.294C226.472 458.34 222.537 460.709 218.316 462.53C209.57 466.304 200.187 467.813 190.935 469.813L190.29 469.953C183.325 471.479 176.216 473.353 170.068 476.975C169.948 478.041 169.462 479.044 168.682 479.701C169.767 480.717 170.226 482.328 169.273 483.839C166.612 488.057 162.027 490.457 157.912 493.154L157.644 493.331C153.595 496.011 149.511 498.639 145.394 501.212C137.025 506.446 128.48 511.391 119.814 516.118C105.877 523.722 91.641 530.895 77.146 537.401C78.016 541.675 77.698 546.083 78.352 550.386L78.452 550.999C78.732 552.596 78.354 553.932 77.253 554.976L77.137 555.083L77.139 555.068L77.035 555.163L77.001 555.192L77.012 555.183C76.885 555.299 76.754 555.407 76.621 555.499L76.451 555.609C75.39 556.252 74.024 556.245 72.938 555.677L72.814 555.609L72.605 555.489C71.17 554.665 70.18 552.622 70.776 550.999C72.239 547.011 72.792 542.755 74.143 538.741L73.071 539.219L71.658 539.834C56.377 546.433 39.403 551.99 22.754 547.492C15.397 545.503 8.5213 541.298 4.8404 534.443C1.2183 527.697 0.706402 519.865 0.514102 512.362C0.276802 503.102 0.773906 493.7 1.99681 484.519C2.81761 478.356 3.8103 472.076 5.3416 465.977C4.554 465.283 3.975 464.288 3.8221 463.055C3.0994 457.23 4.36421 451.173 5.13861 445.378C5.89501 439.72 6.7307 434.073 7.6758 428.443C9.584 417.074 11.8011 405.729 14.382 394.493C18.976 374.497 25.042 354.855 32.346 335.683L32.985 334.013C39.734 316.49 47.548 299.339 58.429 283.945C63.634 276.58 69.136 269.902 76.491 264.595C83.381 259.622 91.153 256.041 99.173 253.305C107.202 250.566 115.455 248.731 123.853 247.589C132.383 246.43 141.386 245.719 149.342 242.225C148.336 240.423 149.199 237.991 150.893 236.873C156.594 233.112 161.865 228.219 166.975 223.697ZM349.461 387.255C349.699 386.892 350.267 387.121 350.162 387.55C347.389 398.893 344.786 410.26 343.087 421.82C340.019 442.684 340.583 463.821 340.834 484.84L340.847 485.927C340.976 497.249 341.155 508.572 341.53 519.889C341.719 525.608 342.093 531.384 341.89 537.106C341.779 540.211 340.95 543.147 340.657 546.214C340.399 548.896 340.628 551.62 340.757 554.305C340.843 556.091 338.204 556.015 338.024 554.305L337.795 552.094C337.496 549.296 337.128 546.515 336.21 543.836C335.105 540.615 334.575 537.451 334.192 534.069C333.606 528.886 333.345 523.651 333.118 518.432L332.963 514.822C332.018 493.01 332.051 471.096 333.582 449.307L333.694 447.751C335.21 427.155 337.84 404.901 349.461 387.255ZM290.361 257.446C289.637 257.149 289.89 256.055 290.692 256.246L292.151 256.593C302.837 259.149 313.329 261.919 323.304 266.675C333.285 271.435 341.735 278.54 348.449 287.277C361.501 304.26 366.925 324.9 371.207 345.521C375.965 368.434 380.298 391.431 385.098 414.337L385.989 418.604C390.43 439.939 394.624 461.285 397.713 482.872L397.935 484.438C401.051 506.636 402.925 529.604 399.525 551.86C398.853 556.263 391.516 555.167 391.803 550.816C392.631 538.24 393.224 525.729 392.651 513.125C392.077 500.518 390.893 487.966 389.128 475.469C387.643 464.952 385.429 454.566 383.469 444.133L383.162 442.485C381.522 433.611 379.83 424.746 378.142 415.881L375.62 402.607C371.84 382.732 367.986 362.839 363.631 343.089L363.373 341.926C359.111 322.925 352.828 303.021 340.045 287.932C327.072 272.619 308.501 264.907 290.361 257.446ZM243.223 458.992C243.535 458.298 244.626 458.374 244.962 458.992C246.276 461.414 246.422 464.506 246.671 467.24L246.697 467.522C247.013 470.859 247.293 474.207 247.464 477.554C247.789 483.908 247.944 490.253 247.924 496.615C247.904 503.134 247.773 509.646 247.421 516.155L247.325 517.9C247.004 523.557 246.465 529.867 243.774 534.812C242.795 536.61 240.134 536.082 239.567 534.263C237.711 528.31 238.664 521.251 239.14 515.154L239.51 510.396C239.876 505.638 240.225 500.877 240.502 496.114C240.882 489.596 241.195 483.072 241.496 476.551C241.594 474.433 241.7 472.315 241.812 470.197L241.984 467.02C242.13 464.363 242.118 461.448 243.223 458.992ZM34.478 467.429L35.3 466.637C37.823 464.171 41.011 460.373 44.741 460.609C46.228 460.703 47.176 461.936 46.867 463.397C46.209 466.521 43.018 468.142 40.721 470.049C38.205 472.138 35.833 474.37 33.466 476.624C31.366 478.623 29.347 480.678 27.376 482.798L26.639 483.596C25.932 484.366 20.901 488.91 21.445 490.089L21.475 490.142C21.626 490.368 21.374 490.678 21.123 490.599C18.95 489.914 19.086 488.054 19.907 486.17C21.485 482.55 24.249 479.201 26.663 476.109C29.07 473.025 31.675 470.153 34.478 467.429ZM251.095 376.64C249.415 372.674 243.226 372.757 239.713 372.994C230.865 373.591 221.292 375.827 213.419 379.957C205.257 384.239 199.759 391.099 194.84 398.686L194.609 399.042C189.815 406.485 185.197 415.296 177.689 420.414C173.865 423.022 169.399 425.402 164.76 426.434C164.441 426.993 163.925 427.436 163.248 427.597L162.934 427.668C161.612 427.96 159.559 428.282 157.786 428.089C157.798 428.956 157.789 429.815 157.811 430.636C157.873 432.988 157.9 435.35 157.9 437.704C157.901 442.635 157.635 447.577 157.841 452.508C158.024 456.869 158.641 461.426 160.738 465.325C162.276 468.185 164.305 470.078 166.756 471.885C172.784 468.216 179.6 465.98 186.517 464.298C194.884 462.265 203.45 460.908 211.626 458.151C215.561 456.823 219.344 455.086 222.772 452.727C226.41 450.222 229.188 446.832 232.047 443.517L232.494 443.002C235.412 439.66 238.595 436.462 242.719 434.651C246.27 433.09 250.95 432.812 254.055 430.397C255.678 429.133 255.814 427.3 255.985 425.422C253.997 425.706 251.892 425.251 249.91 425.019L248.883 424.899C247.009 424.677 245.178 424.432 243.333 423.956C242.991 423.867 242.991 423.352 243.333 423.263C245.513 422.701 247.674 422.461 249.91 422.2L250.435 422.134C252.457 421.87 254.583 421.47 256.567 421.914C256.923 420.562 257.437 419.271 258.158 417.977C259.17 416.161 261.085 414.101 261.344 411.978C261.421 411.345 261.274 410.597 260.974 410.037L260.871 409.846C260.746 409.62 260.597 409.394 260.379 409.253C260.355 409.281 260.303 409.313 260.192 409.348C258.666 409.828 257.334 409.082 256.627 407.932C253.626 408.303 250.352 408.178 247.538 408.302L244.693 408.44C241.653 408.579 238.474 408.64 235.618 408.027C235.219 407.941 235.098 407.278 235.497 407.108C239.009 405.608 243.27 405.129 247.03 404.553C249.13 404.231 251.245 403.985 253.351 403.702C254.754 403.513 256.242 403.201 257.695 403.126C261.338 398.597 259.375 391.452 254.305 389.502C252.458 390.313 250.798 389.841 248.78 389.668C246.766 389.496 244.747 389.379 242.725 389.387C238.672 389.405 234.378 390.47 230.366 390.012C229.713 389.936 229.106 389.069 229.755 388.54C232.827 386.037 237.229 385.221 241.128 384.687L241.936 384.579C243.244 384.408 244.833 384.158 246.482 384.01C246.855 383.283 247.524 382.734 248.529 382.598C248.828 382.557 249.128 382.533 249.428 382.507L249.423 382.478C251.874 382.36 251.767 378.226 251.095 376.64ZM83.307 453.982C83.263 454.049 83.216 454.112 83.165 454.174L83.088 454.264L83.491 454.1L83.307 453.982ZM293.863 367.778C283.548 366.672 273.217 366.905 262.87 367.202C262.043 369.905 259.162 372.209 256.371 372.296C258.557 375.618 258.783 380.115 257.25 383.639C260.504 384.932 263.308 387.256 265.01 390.566C267.371 395.154 267.062 400.26 264.729 404.5C266.72 406.3 267.895 409.223 267.777 411.978C267.646 415.051 265.812 417.675 264.289 420.219C262.642 422.969 262.587 425.392 262.081 428.472C261.341 432.981 258.296 435.716 254.378 437.424L254.586 438.242C255.596 442.169 256.853 446.312 259.74 449.184C263.454 452.878 269.216 452.844 274.123 453.078L274.36 453.089C278.853 453.314 283.345 453.576 287.836 453.831L291.205 454.019C296.377 454.303 301.344 454.337 305.566 450.923C312.458 445.349 317.184 436.125 320.175 427.96C326.452 410.82 326.527 392.012 323.646 374.161C313.982 371.051 303.955 368.861 293.863 367.778ZM208.074 396.214L208.15 396.219C210.274 396.461 211.733 398.179 212.253 400.216C213.008 403.178 212.638 405.855 214.454 408.528C216.322 411.277 217.471 413.478 217.742 416.874C217.854 418.272 217.803 419.666 218.114 421.033L218.34 421.992C218.58 423.014 218.776 423.998 218.657 425.095C218.548 426.096 218.06 426.875 217.055 427.196C213.78 428.242 211.252 425.832 210.406 422.784C209.675 420.152 210.651 417.015 209.62 414.543C209.048 413.172 207.995 412.026 207.399 410.647C206.81 409.279 206.514 407.851 206.419 406.364C206.239 403.553 208.729 400.175 207.34 397.628C207.044 397.085 207.379 396.197 208.074 396.214ZM164.575 367.203C166.792 366.753 169.308 365.722 171.495 366.579C172.619 367.02 173.175 368.389 172.225 369.341C170.576 370.991 168.179 371.083 165.958 371.473L165.763 371.508C163.137 371.993 160.506 372.453 157.871 372.889C152.915 373.709 147.947 374.434 142.961 375.05C137.841 375.683 132.706 376.246 127.564 376.67L125.573 376.833C121.229 377.18 116.71 377.442 112.448 376.777C111.829 376.681 111.928 375.78 112.448 375.623C117.117 374.211 122.238 373.833 127.065 373.236C132.197 372.6 137.32 371.928 142.43 371.131C147.532 370.336 152.627 369.482 157.703 368.538C159.997 368.112 162.288 367.667 164.575 367.203ZM244.592 362.672C242.646 361.984 240.505 360.964 238.397 361.306C234.76 361.894 231.524 365.432 228.646 367.762L230.091 367.482C237.486 366.062 247.279 364.533 253.487 369.229C253.503 369.201 253.515 369.174 253.533 369.147C254.034 368.387 254.615 367.794 255.248 367.144C255.309 367.087 255.367 367.028 255.425 366.968L255.767 366.605L254.985 366.334C253.31 365.743 251.326 364.98 251.012 364.868L250.991 364.861C248.855 364.138 246.717 363.424 244.592 362.672ZM183.832 207.873C183.528 203.964 189.62 203.996 189.921 207.873C190.58 216.336 188.672 224.719 184.567 232.139C184.537 232.193 184.504 232.241 184.472 232.292C187.04 233.626 189.636 234.906 192.291 236.051C195.686 237.514 199.146 238.847 202.667 239.978C205.852 241.002 209.777 241.406 212.454 243.536C218.101 248.026 215.98 257.346 214.894 263.387L214.724 264.34C214.183 267.449 213.792 270.638 215.104 273.621C216.506 276.808 219.34 279.172 221.868 281.452L222.378 281.914C224.618 283.952 227.177 286.428 228.82 289.19C230.319 286.094 232.363 283.563 234.525 280.715C236.067 278.682 234.969 278.012 233.861 276.026C232.795 274.115 232.274 272.077 232.608 269.897C233.223 265.87 236.446 262.961 239.654 260.776C243.442 258.196 247.67 256.284 251.586 253.884C259.633 248.953 267.47 243.316 274.53 237.054C274.725 236.881 275.063 237.108 274.907 237.344C269.33 245.816 262.79 253.137 254.752 259.351C251.493 261.871 248.07 263.961 244.623 266.158L243.633 266.793C242.249 267.688 240.523 268.884 239.897 270.409C239.267 271.941 240.61 273.099 241.333 274.368C243.627 278.401 242.52 282.163 239.8 285.583L239.673 285.74C236.97 289.067 234.921 292.161 233.941 296.412C231.835 305.543 234.768 315.054 237.838 323.626L237.959 323.964C239.62 328.584 241.385 333.171 242.828 337.865L243.225 339.163C244.532 343.482 245.602 347.742 244.136 352.183C243.637 353.693 241.575 354.05 240.718 352.629C237.696 347.616 236.942 341.584 235.048 336.073C233.202 330.702 231.082 325.427 229.298 320.034C227.002 313.09 225.465 305.616 226.299 298.332C226.275 298.29 226.248 298.25 226.227 298.205L225.643 296.928C224.049 293.471 222.509 290.451 219.61 287.695C216.586 284.82 213.304 282.275 210.925 278.794C205.757 271.234 208.953 262.825 209.578 254.559L209.649 253.545C209.763 251.829 209.825 249.496 208.702 248.308C207.439 246.971 204.478 246.63 202.803 246.038C198.473 244.508 194.206 242.725 190.142 240.584C186.273 238.546 182.526 236.294 179.037 233.657L177.268 232.328C174.478 230.225 171.585 227.93 169.715 225.068C169.499 224.738 169.866 224.206 170.256 224.364C173.378 225.629 176.23 227.642 179.151 229.393C179.197 229.286 179.25 229.178 179.309 229.07C182.923 222.538 184.409 215.302 183.832 207.873ZM283.555 252.623C284.799 249.217 290.468 249.48 290.242 253.527C290.068 256.637 288.746 259.443 287.538 262.266L287.409 262.569C286.161 265.51 284.72 268.272 282.995 270.968C279.7 276.121 275.84 280.904 271.717 285.418C267.98 289.51 263.074 292.012 257.421 291.597C255.039 291.421 252.635 290.816 250.548 289.628C248.069 288.216 245.376 283.978 242.214 285.004C241.908 285.103 241.622 284.656 241.887 284.444C245.538 281.507 249.682 286.06 253.178 287.158C258.445 288.81 263.851 286.983 267.241 282.73C270.781 278.29 274.039 273.319 277.014 268.485C278.524 266.03 279.903 263.482 281.093 260.856C282.295 258.206 282.568 255.326 283.555 252.623ZM275.064 231.66C274.911 231.19 275.496 230.743 275.91 231.011C278.309 232.571 280.388 234.632 282.601 236.439C285.056 238.443 287.53 240.406 290.042 242.339C293.703 245.158 289.456 250.348 286.233 247.268C281.823 243.056 276.992 237.548 275.064 231.66ZM261.892 215.173C262.867 211.42 268.632 212.968 267.791 216.677L267.764 216.79C266.173 222.918 268.439 229.156 273.277 233.128L273.455 233.273C276.515 235.719 272.179 239.995 269.149 237.572C262.533 232.285 259.781 223.303 261.892 215.173Z" fill="black"/>
<path fill-rule="evenodd" clip-rule="evenodd" d="M308.457 81.461C303.838 61.974 293.739 43.839 277.572 29.182C228.92 -18.955 139.574 7.17298 139.978 79.712C138.233 88.185 137.525 96.896 138.103 105.537C138.342 109.224 139.936 114.369 137.794 117.687C132.962 123.894 130.154 128.469 131.799 136.726C133.173 143.936 138.075 149.043 144.692 151.759C148.66 152.898 152.425 155.38 153.894 159.164C162.727 175.347 169.27 188.808 183.194 199.837C186.787 202.676 223.639 219.706 235.781 219.706C271.328 219.706 316.131 206.819 316.875 167.082C317.003 158.354 315.473 149.524 314.513 140.866C312.176 121.105 313 100.629 308.457 81.461Z" fill="#AE5D29"/>
<path fill-rule="evenodd" clip-rule="evenodd" d="M307.657 71.714C307.669 71.473 308.014 71.419 308.08 71.657C309.402 76.348 310.15 81.127 311.184 85.892C312.179 90.481 313.119 95.083 313.901 99.713C315.376 108.45 316.619 117.21 317.776 125.993L318.063 128.189C320.073 143.644 323.392 159.743 320.49 175.288C318.013 188.552 309.709 199.242 299.007 207.08C288.874 214.501 276.588 219.263 264.389 221.971C251.296 224.877 235.777 225.745 225.124 216.136C220.86 212.289 226.673 204.655 231.3 208.127C242.163 216.278 255.983 213.875 268.241 210.632L268.612 210.533C279.371 207.665 290.202 203.318 298.743 195.985C308.187 187.876 312.856 176.623 313.395 164.281C313.698 157.347 313.052 150.421 312.355 143.527L312.278 142.762C311.478 134.878 310.639 126.999 309.865 119.113C309.158 111.922 308.549 104.688 308.227 97.465L308.076 93.822C307.763 86.477 307.342 79.024 307.657 71.714ZM180.249 10.682C197.927 1.47104 218.243 -1.82497 237.917 1.26603C256.83 4.23803 274.187 14.004 287.161 28.009C293.496 34.847 299.118 42.756 302.711 51.396C304.495 55.689 305.893 60.167 306.637 64.766C307.02 67.13 307.396 69.579 307.468 71.976C307.534 74.196 306.883 76.277 306.96 78.533C306.972 78.886 306.431 78.954 306.349 78.616C305.735 76.1 304.254 74.198 303.325 71.809C302.631 70.025 301.843 68.283 301.042 66.547L300.353 65.059C298.353 60.734 295.963 56.587 293.599 52.455C288.837 44.133 282.728 36.569 275.575 30.187C263.016 18.982 246.903 11.749 230.086 10.447C212.631 9.09404 194.926 13.258 180.02 22.481C165.114 31.704 153.843 46.041 147.991 62.549C145.039 70.879 143.408 79.558 143.029 88.383C142.837 92.85 143.016 97.355 143.329 101.813L143.484 103.939C143.666 106.489 143.791 109.029 143.411 111.517C146.099 110.678 148.917 110.33 151.746 110.745C155.949 111.362 158.46 113.086 160.345 116.844C160.443 117.041 160.246 117.237 160.05 117.139C157.606 115.918 153.652 116.561 151.063 117.201C148.37 117.867 145.943 119.025 143.655 120.591C139.42 123.487 136.101 127.974 135.286 133.122C134.499 138.095 136.538 143.13 139.965 146.694C141.729 148.53 143.837 150.117 146.198 151.105C149.062 152.306 151.898 152.269 154.432 154.251C155.999 155.477 155.621 157.573 154.558 158.934C159.905 164.802 164.647 171.221 169.993 177.111C172.472 179.842 174.93 182.576 177.305 185.394L178.191 186.455C180.563 189.319 184.335 192.344 185.419 195.946C186.093 198.187 183.695 201.117 181.271 200.096C177.554 198.53 174.9 194.454 172.387 191.327L172.224 191.125C169.589 187.885 167.25 184.465 165.112 180.881L164.409 179.7C160.542 173.192 156.708 166.442 154.243 159.292C154.08 159.46 153.907 159.612 153.726 159.741C150.173 162.269 145.01 160.326 141.462 158.684C138.113 157.135 135.043 154.804 132.65 151.994C127.445 145.884 125.046 137.972 126.784 130.042C128.256 123.325 132.908 116.791 139.007 113.394C136.192 110.15 135.026 105.778 134.251 101.504C133.26 96.047 133.063 90.455 133.332 84.922C133.868 73.902 136.702 63.038 141.083 52.946C148.921 34.889 162.779 19.785 180.249 10.682ZM143.042 131.176C146.753 130.481 150.21 130.313 153.789 131.884C157.671 133.589 160.403 136.405 162.943 139.703C165.832 143.455 158.426 147.554 156.559 142.573L156.504 142.419C156.004 140.945 155.108 139.519 153.974 138.207C153.633 138.729 153.178 139.189 152.643 139.452C151.996 139.771 151.007 139.55 150.851 138.722C150.678 137.803 150.869 136.69 151.399 135.912L151.472 135.806C148.897 133.732 145.801 132.218 143.042 131.731C142.767 131.682 142.77 131.228 143.042 131.176Z" fill="black"/>
<path fill-rule="evenodd" clip-rule="evenodd" d="M272.055 184.604C268.287 185.694 264.243 185.791 260.403 184.666C256.919 183.645 253.343 181.398 250.779 178.425C248.502 175.784 247.027 172.575 247.085 169.149C247.091 168.758 247.231 168.431 247.447 168.178C247.679 167.905 248.003 167.718 248.35 167.636C248.707 167.553 249.084 167.582 249.406 167.728C249.697 167.86 249.946 168.084 250.102 168.412C250.496 168.929 250.888 169.438 251.282 169.933C254.45 173.839 257.518 176.759 262.281 177.806C264.866 178.374 267.447 178.122 269.816 177.255C272.351 176.327 274.643 174.695 276.439 172.607C277.25 171.664 278.208 171.279 279.145 171.272C280.207 171.265 281.257 171.757 282.047 172.545C282.824 173.319 283.345 174.371 283.392 175.471C283.433 176.437 283.118 177.446 282.279 178.346C279.514 181.311 275.931 183.483 272.055 184.604ZM271.939 135.677C275.801 138.021 281.686 143.488 277.531 149.3C272.64 154.425 265.599 148.549 262.129 145.892C258.912 143.832 255.297 149.129 258.282 151.534C283.355 170.072 293.53 136.29 273.892 132.921C271.73 132.549 270.927 134.952 271.939 135.677ZM235.811 125.361C234.57 124.568 233.109 124.296 231.491 125.031C230.226 125.606 228.008 127.52 226.465 130.037C225.409 131.759 224.66 133.779 224.816 135.883C224.852 136.372 224.671 136.732 224.386 136.999C224.161 137.209 223.836 137.364 223.453 137.412C223.129 137.453 222.766 137.416 222.471 137.324C221.909 137.149 221.612 136.785 221.5 136.488C220.419 133.621 220.884 130.423 222.096 127.537C223.73 123.642 226.699 120.38 228.644 119.328C231.972 117.528 235.899 117.445 239.232 119.279C242.069 120.84 243.843 123.361 245.608 125.93C245.983 126.476 246.355 127.018 246.74 127.551C247.511 128.618 247.588 129.676 247.289 130.584C246.958 131.589 246.115 132.438 245.06 132.882C244.085 133.292 242.954 133.35 241.952 132.928C241.107 132.572 240.33 131.878 239.839 130.699C239.012 128.715 237.634 126.525 235.811 125.361ZM298.854 129.776C298.004 130.219 297.339 130.352 296.396 130.07C295.874 129.913 295.359 129.614 294.955 129.211C294.555 128.811 294.267 128.315 294.155 127.764C293.879 126.404 293.134 125.131 292.072 124.301C291.165 123.592 290.019 123.216 288.749 123.428C287.378 123.657 286.072 124.535 285.172 125.57C284.872 125.916 284.636 126.31 284.399 126.7C283.956 127.431 283.525 128.11 282.914 128.647C282.682 128.851 282.333 128.993 281.995 128.993C281.857 128.993 281.718 128.97 281.585 128.929C280.221 127.561 279.958 126.524 280.002 125.495C280.048 124.415 280.474 123.323 281.163 122.303C282.778 119.912 285.844 117.951 287.913 117.507C290.747 116.899 293.561 117.629 295.817 119.21C298.139 120.836 299.859 123.361 300.395 126.206C300.524 126.892 300.469 127.631 300.208 128.273C299.953 128.9 299.508 129.436 298.854 129.776ZM242.06 99.865C240.36 101.52 238.347 101.776 236.311 102.004C235.179 102.132 234.276 102.235 233.387 102.435C230.945 102.986 228.53 103.815 226.327 105.01C224.024 106.258 221.515 107.764 219.709 109.694C219.28 110.153 218.875 110.634 218.47 111.117C218.1 111.557 217.744 111.981 217.369 112.39C216.938 112.859 216.529 113.351 216.122 113.842C215.87 114.256 215.821 114.357 215.77 114.463C215.694 114.623 215.605 114.801 215.504 114.992C215.365 115.254 215.202 115.541 215.032 115.801C214.749 116.276 214.597 116.407 214.466 116.465C214.248 116.562 214.041 116.61 213.841 116.584C213.653 116.56 213.476 116.47 213.301 116.322C212.428 115.585 212.17 114.376 212.197 113.093C212.237 111.146 212.956 108.99 213.619 107.664C215.161 104.584 217.299 101.383 219.87 99.084C222.803 96.46 226.013 94.474 229.699 93.105C231.99 92.254 234.643 91.473 237.139 91.572C238.935 91.643 240.65 92.176 242.067 93.508C242.936 94.326 243.354 95.489 243.354 96.651C243.354 97.836 242.92 99.028 242.06 99.865ZM302.313 115.017C302.205 115.194 302.055 115.316 301.888 115.389C301.714 115.466 301.519 115.488 301.332 115.457C301.146 115.425 300.968 115.341 300.828 115.212C300.693 115.089 300.591 114.925 300.545 114.724C299.416 109.772 297.224 106.088 292.545 103.712C290.243 102.543 287.596 101.8 285.091 101.208C284.363 101.036 283.593 100.925 282.818 100.812C280.39 100.457 277.944 100.052 276.361 98.092C275.407 96.911 275.007 95.401 275.233 94.02C275.447 92.72 276.207 91.527 277.591 90.813C281.034 89.035 285.313 90.78 288.79 92.266C289.048 92.376 289.301 92.484 289.549 92.589C292.949 94.022 296.051 95.914 298.6 98.62C300.623 100.767 302.497 103.94 303.252 107.205C303.88 109.921 303.732 112.694 302.313 115.017Z" fill="black"/>
<path fill-rule="evenodd" clip-rule="evenodd" d="M226.374 188.196C230.515 178.509 239.552 171.389 249.958 168.785C257.599 166.879 265.618 166.94 273.407 167.696C277.488 168.09 281.865 168.413 285.711 169.926C288.996 171.219 291.672 173.663 293.684 176.532C296.08 179.932 297.709 183.823 298.853 187.811C299.016 188.378 299.168 188.949 299.311 189.524C298.814 192.533 297.757 195.094 294.966 196.986C292.243 198.833 288.994 199.589 285.754 199.857C285.437 199.705 285.13 199.548 284.848 199.388C279.8 196.502 276.247 189.682 269.876 190.605C264.19 191.429 260.447 198.574 257.066 202.764C246.212 204.026 235.367 200.769 226.536 194.571C226.087 192.45 226.061 190.311 226.374 188.196ZM306.688 180.847C305.82 178.414 304.726 176.057 303.43 173.837C299.144 166.495 292.566 160.645 284.756 157.301C266.282 149.402 242.378 154.97 227.458 167.926C222.362 172.355 217.209 178.864 215.651 185.865C215.185 185.957 214.746 186.199 214.384 186.539C203.605 179.762 192.505 173.241 183.819 163.846C177.511 157.02 173.123 148.942 170.437 140.065C170.217 139.335 169.037 139.441 169.073 140.25C169.083 140.439 169.093 140.628 169.104 140.817C168.991 140.469 168.46 140.648 168.419 140.986C166.974 151.769 165.166 163.202 166.831 174.042C167.827 180.51 170.769 185.245 174.702 190.358C178.915 195.839 183.686 200.937 188.564 205.825C191.659 208.928 194.892 212.508 198.682 214.783C203.09 217.426 208.09 219.436 212.794 221.476C217.58 223.557 222.438 225.479 227.387 227.146C237.28 230.49 247.506 232.801 257.91 233.814C266.241 234.622 275.762 235.502 283.745 232.372C289.864 229.974 294.803 225.638 298.72 220.423C302.985 214.742 306.357 208.271 308.221 201.448C310.157 194.36 307.096 181.99 306.688 180.847Z" fill="black"/>
<path fill-rule="evenodd" clip-rule="evenodd" d="M317.711 138.788C311.501 145.195 301.136 147.034 292.874 143.597C271.662 134.746 282.044 107.14 298.404 99.726C300.448 99.217 303.177 98.01 305.666 97.736C305.891 97.626 306.381 97.945 306.975 97.643C325.014 99.655 329.122 127.62 317.711 138.788ZM249.291 140.427C242.327 149.652 229.379 152.498 218.8 148.21C197.902 139.991 205.314 115.51 219.612 105.913C249.817 94.579 262.289 123.419 249.291 140.427ZM203.987 119.988C203.968 119.979 203.948 119.974 203.928 119.965C204.039 119.916 204.149 119.868 204.259 119.818C204.223 119.912 204.184 120.004 204.15 120.098C204.095 120.06 204.048 120.017 203.987 119.988ZM332.088 110.016C330.383 110.02 327.92 110.3 326.509 111.481C323.028 99.757 310.179 88.907 299.005 96.819C290.206 99.645 283.676 105.913 279.965 114.245C273.274 110.271 262.752 111.968 256.95 117.224C253.15 104.684 243.798 100.293 232.666 99.645C220.516 97.658 208.406 109.442 204.628 118.895C201.486 118.538 196.792 117.539 193.836 119.476C174.653 114.452 141.115 111.682 137.216 114.473C134.436 115.538 132.911 122.089 136.793 122.443C140.176 121.963 136.398 117.642 139.808 117.171C157.976 116.046 175.613 119.7 193.589 121.234C195.194 123.389 200.379 124.111 203.146 123.244C198.789 139.28 208.194 150.19 222.287 153.458C244.109 158.464 263.094 138.969 257.388 118.692C263.998 115.408 271.602 115.549 278.803 117.279C266.77 161.506 338.094 159.521 326.955 112.996C334.368 116.679 335.978 110.759 332.088 110.016Z" fill="black"/>
</svg>
