<svg width="73" height="72" viewBox="0 0 73 72" fill="none" xmlns="http://www.w3.org/2000/svg">
<path d="M36.3911 71.516C56.1397 71.516 72.1491 55.5066 72.1491 35.758C72.1491 16.0094 56.1397 0 36.3911 0C16.6425 0 0.633057 16.0094 0.633057 35.758C0.633057 55.5066 16.6425 71.516 36.3911 71.516Z" fill="#FFD700"/>
<path opacity="0.1" d="M36.391 66.51C53.3749 66.51 67.143 52.7419 67.143 35.758C67.143 18.7742 53.3749 5.00604 36.391 5.00604C19.4072 5.00604 5.63904 18.7742 5.63904 35.758C5.63904 52.7419 19.4072 66.51 36.391 66.51Z" fill="black"/>
<path d="M34.9171 53.904V49.428C32.7743 49.4089 30.6898 48.7278 28.9491 47.478L29.8851 44.509C31.5075 45.7247 33.4749 46.3919 35.5021 46.414C36.0985 46.4616 36.6983 46.3843 37.2631 46.1869C37.8279 45.9895 38.3453 45.6765 38.7822 45.2677C39.2191 44.8589 39.5659 44.3635 39.8004 43.813C40.0349 43.2626 40.152 42.6693 40.1441 42.071C40.1441 39.634 38.6231 38.127 35.7361 36.797C31.7571 35.024 29.2991 32.986 29.2991 29.131C29.2379 27.4271 29.8035 25.7598 30.889 24.4449C31.9745 23.13 33.5044 22.2587 35.1891 21.996V17.52H37.6071V21.82C39.4105 21.8446 41.1695 22.3826 42.6781 23.371L41.7031 26.296C40.2562 25.3054 38.5416 24.7797 36.7881 24.789C33.7881 24.789 32.6531 26.827 32.6531 28.6C32.6531 30.9 34.0961 32.056 37.4901 33.652C41.5081 35.513 43.5361 37.818 43.5361 41.761C43.5899 43.5489 42.9956 45.296 41.8629 46.6803C40.7302 48.0646 39.1353 48.9928 37.3721 49.294V53.903L34.9171 53.904Z" fill="#000E7D"/>
</svg>
