<svg width="77" height="112" viewBox="0 0 77 112" fill="none" xmlns="http://www.w3.org/2000/svg">
<g clip-path="url(#clip0)">
<path d="M38.391 71.516C58.1396 71.516 74.149 55.5066 74.149 35.758C74.149 16.0094 58.1396 0 38.391 0C18.6424 0 2.633 16.0094 2.633 35.758C2.633 55.5066 18.6424 71.516 38.391 71.516Z" fill="white"/>
<path opacity="0.1" d="M38.391 66.51C55.3749 66.51 69.143 52.7419 69.143 35.758C69.143 18.7742 55.3749 5.00604 38.391 5.00604C21.4071 5.00604 7.63901 18.7742 7.63901 35.758C7.63901 52.7419 21.4071 66.51 38.391 66.51Z" fill="black"/>
<path d="M36.917 53.904V49.428C34.7742 49.4089 32.6897 48.7278 30.949 47.478L31.885 44.509C33.5074 45.7247 35.4748 46.3919 37.502 46.414C38.0984 46.4616 38.6982 46.3843 39.263 46.1869C39.8278 45.9895 40.3452 45.6765 40.7821 45.2677C41.219 44.8589 41.5658 44.3635 41.8003 43.813C42.0348 43.2626 42.1519 42.6693 42.144 42.071C42.144 39.634 40.623 38.127 37.736 36.797C33.757 35.024 31.299 32.986 31.299 29.131C31.2378 27.4271 31.8034 25.7598 32.8889 24.4449C33.9744 23.13 35.5043 22.2587 37.189 21.996V17.52H39.607V21.82C41.4104 21.8446 43.1694 22.3826 44.678 23.371L43.703 26.296C42.2561 25.3054 40.5415 24.7797 38.788 24.789C35.788 24.789 34.653 26.827 34.653 28.6C34.653 30.9 36.096 32.056 39.49 33.652C43.508 35.513 45.536 37.818 45.536 41.761C45.5898 43.5489 44.9955 45.296 43.8628 46.6803C42.7301 48.0646 41.1352 48.9928 39.372 49.294V53.903L36.917 53.904Z" fill="#000E7D"/>
<path d="M76.164 108.492C50.9156 112.257 25.2484 112.257 0 108.492V99.91C25.2752 103.295 50.8888 103.295 76.164 99.91V108.492Z" fill="white"/>
<path d="M76.164 95.262C50.9156 99.0274 25.2484 99.0274 0 95.262V86.6801C25.2752 90.0649 50.8888 90.0649 76.164 86.6801V95.262Z" fill="white"/>
<path d="M76.164 82.032C50.9156 85.7974 25.2484 85.7974 0 82.032V73.45C25.2752 76.8351 50.8888 76.8351 76.164 73.45V82.032Z" fill="white"/>
</g>
<defs>
<clipPath id="clip0">
<rect width="76.164" height="111.316" fill="white"/>
</clipPath>
</defs>
</svg>
