<svg width="110" height="50" viewBox="0 0 110 50" fill="none" xmlns="http://www.w3.org/2000/svg">
<path d="M85 0H25C11.1929 0 0 11.1929 0 25C0 38.8071 11.1929 50 25 50H85C98.8071 50 110 38.8071 110 25C110 11.1929 98.8071 0 85 0Z" fill="white"/>
<path d="M85 0.5H25C11.469 0.5 0.5 11.469 0.5 25C0.5 38.531 11.469 49.5 25 49.5H85C98.531 49.5 109.5 38.531 109.5 25C109.5 11.469 98.531 0.5 85 0.5Z" stroke="#707070"/>
<path d="M84 46C95.598 46 105 36.598 105 25C105 13.402 95.598 4 84 4C72.402 4 63 13.402 63 25C63 36.598 72.402 46 84 46Z" fill="#19D6D9"/>
</svg>
