<svg width="675" height="437" viewBox="0 0 675 437" fill="none" xmlns="http://www.w3.org/2000/svg">
<path d="M675 431.478H0V436.411H675V431.478Z" fill="#000E7D"/>
<path d="M534.775 344.381C534.775 348.175 512.658 359.237 486.387 359.237C460.116 359.237 439.645 348.175 439.645 344.381C439.645 340.587 460.939 341.809 487.236 341.809C513.533 341.809 534.775 340.581 534.775 344.381Z" fill="#504F60"/>
<path opacity="0.2" d="M534.775 344.381C534.775 348.175 512.658 359.237 486.387 359.237C460.116 359.237 439.646 348.175 439.646 344.381" fill="black"/>
<path d="M270.205 274.757C274.469 275.304 278.894 275.651 282.977 274.326C283.62 274.126 284.328 273.683 284.263 273.04C284.217 272.806 284.118 272.586 283.974 272.397C282.434 270.088 281.141 267.624 280.115 265.046C280.074 264.912 279.991 264.794 279.877 264.712C279.744 264.663 279.598 264.663 279.465 264.712C277.581 265.212 275.954 266.423 274.082 266.944C273.128 267.206 272.132 267.28 271.149 267.163C270.3 267.063 269.143 266.363 268.371 266.456C268.812 269.265 269.877 271.892 270.205 274.757Z" fill="#6C63FF"/>
<path d="M350.843 267.643C353.653 265.714 356.567 263.688 358.226 260.71C358.345 260.531 358.414 260.324 358.426 260.11C358.398 259.9 358.316 259.7 358.188 259.531C356.608 257.018 354.573 254.822 352.188 253.055C350.943 253.934 349.819 254.972 348.843 256.143C348.136 256.889 346.181 258.072 346.161 259.211C346.161 259.854 346.907 260.6 347.254 261.14C347.723 261.835 348.167 262.54 348.592 263.262C348.843 263.613 351.07 267.497 350.843 267.643Z" fill="#6C63FF"/>
<path d="M286.919 283.369C286.969 284.032 286.787 284.691 286.404 285.234C286.104 285.536 285.732 285.757 285.324 285.877C279.362 288.012 272.462 285.35 266.513 287.453C265.291 287.884 264.134 288.508 262.905 288.919C261.441 289.36 259.931 289.628 258.405 289.719C256.305 289.919 254.186 290.047 252.077 290.105C250.474 290.218 248.864 290.077 247.305 289.687C246.526 289.487 245.797 289.126 245.167 288.626C244.536 288.127 244.018 287.5 243.646 286.787C243.323 286.148 243.258 285.409 243.466 284.723C243.559 284.488 243.692 284.27 243.858 284.08C244.261 283.628 244.733 283.244 245.258 282.942L247.451 281.527C248.479 280.8 249.597 280.208 250.776 279.765C251.644 279.482 252.564 279.36 253.445 279.122C256.526 278.222 258.879 275.778 261.066 273.43L264.05 270.247C264.329 269.897 264.682 269.613 265.085 269.417C265.499 269.279 265.939 269.237 266.371 269.295C269.269 269.502 272.068 270.44 274.506 272.022C275.129 272.489 275.802 272.886 276.513 273.205C277.446 273.475 278.424 273.553 279.388 273.434C280.352 273.314 281.282 273 282.121 272.51C282.886 272.098 282.721 271.867 283.041 271.134C283.361 270.401 284.147 269.934 284.829 270.6C285.034 270.831 285.18 271.109 285.253 271.41C285.896 273.532 285.653 275.815 285.653 278.04C285.634 278.388 285.678 278.736 285.782 279.069C285.946 279.404 286.142 279.723 286.367 280.021C286.413 280.1 286.454 280.181 286.489 280.265C286.882 281.25 287.03 282.316 286.92 283.371L286.919 283.369Z" fill="#514E7F"/>
<path d="M286.919 283.369C286.969 284.032 286.787 284.691 286.404 285.234C286.104 285.536 285.732 285.757 285.324 285.877C279.362 288.012 272.462 285.35 266.513 287.453C265.291 287.884 264.134 288.508 262.905 288.919C261.441 289.36 259.931 289.628 258.405 289.719C256.305 289.919 254.186 290.047 252.077 290.105C250.474 290.219 248.864 290.077 247.305 289.687C246.526 289.488 245.797 289.126 245.167 288.627C244.536 288.127 244.018 287.5 243.646 286.787C243.323 286.148 243.258 285.409 243.466 284.723C243.559 284.488 243.692 284.271 243.858 284.08C244.205 284.807 244.458 285.771 244.675 286.119C244.97 286.634 245.372 287.079 245.853 287.427C246.335 287.774 246.884 288.014 247.466 288.132C248.336 288.185 249.209 288.074 250.038 287.804C255.438 286.466 261.183 286.447 266.373 284.421C268.102 283.6 269.891 282.912 271.724 282.363C273.64 282.074 275.574 281.917 277.512 281.894C280.56 281.65 283.512 280.73 286.512 280.248C286.9 281.24 287.039 282.311 286.919 283.369Z" fill="#464353"/>
<path d="M364.498 267.247C364.05 269.502 362.897 271.556 361.205 273.112C359.521 274.652 357.978 276.34 356.594 278.154C355.051 280.514 354.356 283.44 352.349 285.434C351.579 286.159 350.714 286.776 349.777 287.267C348.728 287.886 347.618 288.397 346.465 288.791C343.465 289.749 340.24 289.531 337.108 289.299C336.091 289.289 335.085 289.096 334.137 288.727C333.705 288.508 333.292 288.254 332.902 287.968C332.117 287.485 331.456 286.824 330.973 286.039C330.736 285.613 330.67 285.112 330.787 284.639C330.966 284.117 331.273 283.648 331.681 283.276C332.386 282.543 333.142 281.862 333.945 281.237C335.046 280.526 336.039 279.66 336.891 278.664C337.414 277.878 337.799 277.008 338.029 276.092C338.485 274.487 338.763 272.837 338.859 271.172C338.855 270.065 338.97 268.961 339.2 267.879C339.676 266.179 340.936 264.663 340.795 262.908C340.738 262.656 340.76 262.393 340.859 262.155C341.009 261.969 341.218 261.839 341.451 261.788C342.434 261.396 343.47 261.156 344.525 261.074C345.054 261.038 345.585 261.119 346.078 261.313C346.572 261.506 347.017 261.807 347.38 262.193C347.817 262.72 348.107 263.479 348.75 263.685C349.069 263.772 349.403 263.785 349.728 263.723C351.331 263.712 352.896 263.232 354.228 262.34C354.805 261.822 355.269 261.191 355.59 260.485C355.911 259.78 356.082 259.015 356.093 258.24C356.093 257.655 355.829 257.04 356.736 256.954C357.418 256.864 357.958 257.597 358.305 258.047C359.676 259.646 360.701 261.511 361.315 263.526C361.498 263.455 361.691 263.419 361.887 263.417C362.288 263.413 362.684 263.507 363.042 263.689C363.399 263.872 363.707 264.138 363.939 264.465C364.452 265.296 364.65 266.283 364.498 267.247Z" fill="#514E7F"/>
<path d="M364.497 267.243C364.049 269.498 362.896 271.552 361.204 273.108C359.52 274.648 357.977 276.336 356.593 278.15C355.05 280.51 354.355 283.436 352.349 285.43C351.579 286.155 350.713 286.772 349.776 287.263C348.727 287.882 347.617 288.393 346.464 288.787C343.464 289.745 340.239 289.527 337.107 289.295C336.09 289.285 335.084 289.092 334.136 288.723C333.704 288.504 333.291 288.25 332.901 287.964C332.116 287.48 331.455 286.82 330.972 286.035C331.575 285.745 332.232 285.587 332.901 285.572C334.29 285.649 335.306 286.961 336.638 287.366C338.538 287.938 340.426 286.601 342.349 286.144C343.603 285.844 344.921 285.925 346.163 285.501C347.197 285.101 348.153 284.522 348.986 283.79C350.128 282.973 351.144 281.994 352.002 280.883C352.714 279.772 353.307 278.588 353.77 277.352C354.786 274.983 355.981 272.695 357.346 270.509C357.548 270.163 357.792 269.843 358.073 269.557C358.386 269.3 358.715 269.061 359.057 268.843C360.242 267.744 361.038 266.291 361.327 264.701C361.449 264.224 361.619 263.761 361.835 263.318C362.236 263.314 362.632 263.408 362.99 263.59C363.347 263.773 363.655 264.039 363.887 264.366C364.441 265.216 364.658 266.241 364.497 267.243Z" fill="#464353"/>
<path d="M229.643 66.736C231.244 67.9349 232.561 69.4712 233.502 71.236C234.402 72.998 239.592 86.671 239.29 88.658C240.981 86.958 247.65 86.677 249.361 84.973C250.075 84.259 253.927 80.696 254.506 79.867C255.085 79.038 259.381 77.295 259.85 76.42C261.606 73.275 247.399 61.358 249.219 58.252C249.32 58.1092 249.372 57.9377 249.367 57.763C249.325 57.6166 249.243 57.4851 249.129 57.384C247.874 56.2899 246.495 55.3468 245.02 54.574C243.533 53.7822 242.411 52.4454 241.888 50.844C240.551 51.4595 239.323 52.2894 238.254 53.301C235.647 55.535 233.086 57.8137 230.569 60.137C229.585 61.05 227.681 62.266 227.225 63.571C226.685 64.974 228.704 65.971 229.643 66.736Z" fill="#A1616A"/>
<path d="M252.641 61.675C250.461 63.1398 248.424 64.8065 246.557 66.653C244.795 68.396 243.123 70.415 242.698 72.853C242.518 73.811 242.544 74.782 242.398 75.753C241.755 79.965 238.115 83.053 236.507 86.995C236.041 88.2116 235.698 89.472 235.484 90.757C235.032 93.1931 234.785 95.6627 234.744 98.14C234.705 100.54 237.059 102.192 237.921 104.43C238.639 106.657 239.151 108.945 239.452 111.266C240.39 115.587 241.681 119.824 243.311 123.935C246.482 132.694 256.759 156.907 259.929 165.673C269.647 163.236 295.513 157.634 304.117 152.496C306.985 150.785 284.217 131.486 287.28 130.154C287.455 130.127 287.622 130.059 287.767 129.956C287.911 129.854 288.03 129.719 288.114 129.562C288.197 129.406 288.243 129.232 288.248 129.054C288.253 128.877 288.217 128.701 288.142 128.54C285.074 115.125 275.479 104.102 271.125 91.04C269.614 86.506 266.9 82.635 264.842 78.326C262.977 74.426 261.98 70.107 259.748 66.396C259.327 65.6314 258.777 64.9459 258.121 64.37C257.564 63.9432 256.963 63.5787 256.327 63.283C255.052 62.665 253.873 62.299 252.641 61.675Z" fill="#514E7F"/>
<path d="M230.158 65.212C238.558 65.212 245.368 58.4022 245.368 50.002C245.368 41.6017 238.558 34.792 230.158 34.792C221.758 34.792 214.948 41.6017 214.948 50.002C214.948 58.4022 221.758 65.212 230.158 65.212Z" fill="#A1616A"/>
<path d="M245.631 57.147C246.389 56.448 247.341 55.9951 248.362 55.8482C249.382 55.7013 250.424 55.8672 251.348 56.324C251.884 56.5456 252.336 56.93 252.641 57.4228C252.946 57.9156 253.088 58.4918 253.048 59.07L260.592 59.186C261.793 59.1531 262.993 59.2633 264.168 59.514C265.35 59.7716 266.405 60.4332 267.152 61.385C267.242 61.507 267.345 61.655 267.499 61.674C267.624 61.6758 267.747 61.6349 267.846 61.558C269.007 60.976 270.314 60.7522 271.602 60.915C275.679 61.179 279.448 63.215 282.644 65.764C283.22 66.1599 283.667 66.7163 283.93 67.364C284.194 68.219 283.879 69.293 284.573 69.904C284.573 76.978 287.004 83.589 288.624 90.484C288.913 91.712 290.09 92.799 290.907 93.764C291.916 94.8335 292.74 96.0637 293.344 97.404C294.72 100.98 292.823 105.186 294.161 108.774C294.846 110.237 295.71 111.609 296.733 112.858C297.937 114.38 298.698 116.205 298.933 118.132C298.991 118.994 298.882 119.862 298.933 120.704C299.019 121.863 299.235 123.008 299.576 124.119C300.125 126.194 300.699 128.267 301.299 130.338C302.277 133.682 303.55 137.29 306.547 139.071C299.312 140.299 291.685 141.502 284.79 138.987C283.828 138.659 282.915 138.203 282.076 137.63C279.587 135.855 278.385 132.82 277.311 129.951C275.96 126.79 275.066 123.454 274.655 120.041C274.657 118.953 274.503 117.87 274.198 116.825C273.498 114.96 271.626 113.835 269.928 112.799C268.011 111.749 266.274 110.398 264.783 108.799C264.043 107.994 263.477 107.045 263.118 106.012C262.76 104.978 262.617 103.883 262.699 102.792C262.828 101.731 263.246 100.708 263.284 99.641C263.351 99.1121 263.245 98.5758 262.982 98.1122C262.719 97.6486 262.312 97.2826 261.824 97.069C256.557 95.474 254.042 89.236 252.872 83.859C252.367 81.0802 252.141 78.2578 252.197 75.434L252.126 69.948C251.399 69.2871 250.815 68.4853 250.408 67.5913C250.001 66.6974 249.78 65.73 249.759 64.748C249.829 64.1747 249.818 63.5944 249.727 63.024C249.473 62.327 249.059 61.6993 248.518 61.191C247.355 59.9976 246.381 58.6336 245.63 57.146L245.631 57.147Z" fill="#464353"/>
<path d="M229.431 74.537C229.257 76.237 229.643 77.978 229.264 79.643C229.116 80.286 228.859 80.929 228.672 81.527C228.101 83.9244 228.348 86.4436 229.372 88.685C230.395 90.9043 231.62 93.0249 233.031 95.02C233.508 95.701 233.901 96.4374 234.201 97.213C234.444 98.0269 234.595 98.8655 234.651 99.713C235.023 103.119 235.621 106.496 236.439 109.823C237.159 112.704 245.339 137.335 247.239 139.623C247.584 140.13 248.107 140.487 248.705 140.623C249.136 140.639 249.564 140.551 249.953 140.366L253.812 138.887C254.14 138.787 254.444 138.62 254.706 138.398C255.068 137.976 255.264 137.436 255.259 136.88C255.536 133.742 247.336 108.937 246.294 105.972C243.143 97.02 238.95 88.389 236.894 79.122C236.322 76.55 236.019 72.588 234.135 70.536C233.357 69.687 233.62 70.047 232.688 70.491C232.217 70.6955 231.761 70.9342 231.325 71.205C230.782 71.5849 230.33 72.081 230.002 72.6573C229.674 73.2337 229.479 73.8758 229.431 74.537Z" fill="#464353"/>
<path d="M241.142 91.522C242.177 96.995 243.242 102.455 244.306 107.928L259.406 103.973C259.528 102.391 258.686 100.925 258.12 99.473C256.744 96.019 256.711 92.173 255.599 88.624C254.757 85.924 253.29 83.44 252.499 80.724C252.042 79.142 251.811 77.508 251.361 75.907C250.878 74.3338 250.285 72.7967 249.586 71.307C248.738 69.1484 247.632 67.1003 246.293 65.207C244.364 65.927 242.306 66.763 241.206 68.507C240.642 69.4891 240.32 70.5916 240.267 71.723C240.003 75.112 241.232 78.523 240.827 81.891C240.411 85.0972 240.517 88.3498 241.142 91.522Z" fill="#000E7D"/>
<path d="M259.658 164.322C260.507 167.538 259.279 170.922 258.275 174.104C256.765 178.899 255.735 183.832 255.201 188.831C255.135 190.103 254.88 191.359 254.442 192.555C253.966 193.629 253.156 194.536 252.603 195.555C251.085 198.243 251.124 201.523 251.452 204.597C251.671 206.623 251.999 208.642 252.404 210.636C252.904 213.073 253.51 215.62 252.796 218C253.996 217.736 254.802 219.286 254.725 220.5C254.648 221.714 254.255 223.072 254.841 224.121C256.32 224.661 256.333 226.693 256.288 228.269C256.313 231 256.658 233.719 257.317 236.369C259.555 247.13 261.93 257.862 264.443 268.563C269.877 270.248 276.225 272.004 281.408 269.669C281.909 269.501 282.365 269.218 282.738 268.843C283.111 268.467 283.391 268.01 283.556 267.508C283.612 266.947 283.542 266.38 283.35 265.849L280.893 256.91C280.15 254.79 279.85 252.54 280.012 250.299C280.25 248.646 280.97 246.865 280.16 245.405C279.884 244.905 279.446 244.511 279.125 244.035C277.839 242.151 278.514 239.63 278.617 237.347C278.658 236.835 278.624 236.319 278.517 235.816C278.341 235.229 278.095 234.665 277.784 234.137C275.754 230.195 274.779 225.795 274.954 221.365C275.031 220.8 274.953 220.224 274.729 219.699C274.573 219.482 274.433 219.254 274.311 219.017C274.215 218.604 274.263 218.171 274.446 217.789C273.709 217.23 273.044 216.582 272.465 215.86C272.822 215.638 273.123 215.338 273.347 214.983C273.571 214.627 273.711 214.226 273.757 213.808C273.803 213.391 273.753 212.968 273.612 212.573C273.471 212.177 273.241 211.819 272.941 211.525C273.203 211.472 273.446 211.348 273.642 211.165C273.837 210.983 273.979 210.75 274.05 210.492C274.121 210.234 274.12 209.961 274.045 209.704C273.971 209.447 273.827 209.216 273.629 209.036C273.314 208.817 272.896 208.721 272.671 208.393C272.324 207.917 272.607 207.255 272.89 206.747L274.39 204.04C275.509 202.027 275.76 199.54 276.962 197.609C278.589 194.739 279.916 191.709 280.924 188.567L285.252 176.624L288.165 179.151C289.135 179.892 289.948 180.819 290.557 181.878C290.971 182.924 291.233 184.024 291.335 185.145C292.403 191.628 296.48 197.245 297.991 203.635C298.198 205.083 298.664 206.481 299.367 207.764C299.659 208.137 299.922 208.533 300.152 208.947C300.365 209.579 300.476 210.241 300.48 210.908C300.615 212.214 301.029 213.476 301.695 214.608C302.361 215.74 303.263 216.715 304.339 217.468C305.773 218.452 307.555 219.127 308.333 220.684C308.489 221.166 308.705 221.626 308.976 222.054C309.671 222.89 311.169 222.987 311.465 224.035C311.632 224.62 311.324 225.321 311.651 225.835C311.837 226.073 312.084 226.258 312.365 226.369L316.552 228.459C321.234 230.8 323.626 236.176 327.08 240.093C328.273 241.369 329.329 242.765 330.231 244.26C331.723 246.929 332.411 250.28 334.931 251.977C335.609 252.328 336.226 252.787 336.758 253.334C337.549 254.376 337.258 255.834 337.33 257.148C337.402 258.462 338.404 260.023 339.652 259.624C339.215 261.213 339.215 262.89 339.652 264.479C345.129 264.197 350.353 262.082 354.482 258.472C355.704 257.404 356.882 256.041 356.894 254.42C356.912 254.142 356.85 253.864 356.714 253.62C356.467 253.304 356.141 253.057 355.769 252.906C351.852 250.784 350.676 245.864 348.695 241.87C346.965 238.346 344.406 235.31 342.264 232.037C337.608 224.995 334.431 216.474 327.389 211.824C325.839 210.801 324.038 209.895 323.26 208.203C322.829 207.258 322.778 206.177 322.437 205.203C322.306 204.698 322.026 204.245 321.633 203.901C321.241 203.557 320.755 203.338 320.237 203.274C320.676 201.759 320.845 200.179 320.737 198.605C320.776 197.926 320.698 197.245 320.505 196.592C320.238 195.89 319.89 195.221 319.47 194.598C317.633 191.487 316.714 187.919 316.82 184.308C316.871 182.449 317.199 180.533 316.64 178.758C316.357 177.864 315.862 177.047 315.521 176.186C315.009 174.624 314.739 172.993 314.721 171.35L314.335 165.17C314.276 163.111 314.008 161.064 313.535 159.06C312.249 154.26 310.963 134.165 306.557 131.901C302.151 129.637 294.582 145.101 289.624 145.406C287.431 145.497 285.263 145.916 283.193 146.647C279.893 147.882 277.128 150.184 274.434 152.435L265.315 160.095C263.583 161.699 261.687 163.116 259.658 164.322Z" fill="#464353"/>
<path d="M215.884 33.114C216.946 31.7813 218.291 30.702 219.823 29.9547C221.354 29.2074 223.033 28.8109 224.737 28.794C228.151 28.7902 231.512 29.6345 234.519 31.251C235.417 31.7614 236.376 32.1546 237.374 32.421C238.982 32.749 240.774 32.312 242.223 33.064C244.152 34.087 244.523 36.691 244.358 38.852C244.193 41.013 243.786 43.412 244.937 45.283C245.346 45.8169 245.717 46.3778 246.05 46.962C246.415 48.1313 246.384 49.3886 245.96 50.538C245.294 49.792 244.678 49.0037 244.114 48.178C243.817 47.7739 243.39 47.4847 242.905 47.3594C242.42 47.234 241.906 47.2801 241.451 47.49C240.621 48.05 240.634 49.066 240.589 49.979C240.544 50.892 240.312 51.986 239.451 52.279C239.091 52.3609 238.715 52.333 238.371 52.1989C238.027 52.0649 237.732 51.8308 237.522 51.527C236.049 49.727 236.641 46.852 235.181 45.038C234.351 44.009 232.969 43.507 232.203 42.427C231.603 41.578 231.444 40.498 230.917 39.584C230.39 38.67 229.161 38.002 228.345 38.632C228.066 38.8985 227.834 39.2094 227.657 39.552C227.148 40.2816 226.407 40.8182 225.555 41.0749C224.703 41.3317 223.79 41.2937 222.962 40.967C222.33 40.5789 221.646 40.2823 220.93 40.086C220.462 40.0624 219.996 40.1703 219.585 40.3976C219.175 40.6249 218.837 40.9624 218.608 41.372C218.146 42.1902 217.924 43.1215 217.965 44.06C217.965 45.346 218.196 46.716 217.465 47.745C217.186 48.1326 216.837 48.4643 216.436 48.723C215.362 49.411 213.864 49.874 212.873 49.09C212.536 48.7772 212.285 48.3828 212.145 47.9449C212.005 47.507 211.98 47.0404 212.073 46.59C212.266 45.6948 212.519 44.8138 212.832 43.953C213.398 41.959 212.658 39.715 213.276 37.837C213.923 36.1496 214.8 34.5601 215.884 33.114Z" fill="#464353"/>
<path d="M224.035 78.485C223.937 78.9551 223.987 79.4438 224.176 79.885C224.367 80.1846 224.627 80.4339 224.935 80.612C227.098 81.9594 229.557 82.7566 232.099 82.934C232.445 82.9399 232.784 83.028 233.089 83.191C233.359 83.4373 233.545 83.7625 233.62 84.1204C233.695 84.4784 233.656 84.8508 233.507 85.185C233.207 85.8522 233.051 86.5753 233.05 87.307C233.237 88.651 234.831 89.236 236.175 89.436C238.058 89.8148 240.014 89.4334 241.616 88.375C242.627 87.4533 243.397 86.2989 243.861 85.012C247.552 76.529 248.845 67.153 252.582 58.696C252.865 58.1438 253.054 57.5483 253.141 56.934C253.181 56.6263 253.137 56.3137 253.015 56.0286C252.892 55.7436 252.696 55.4965 252.446 55.313C251.751 54.882 250.671 55.127 250.202 54.451C249.97 54.11 249.996 53.651 249.79 53.287C249.359 52.522 248.227 52.644 247.455 52.2C246.855 51.878 246.432 51.216 245.755 51.087C245.423 51.0682 245.092 51.127 244.787 51.2588C244.482 51.3906 244.212 51.5916 243.999 51.846C241.806 53.891 240.655 56.792 239.433 59.531C237.567 63.7304 235.383 67.7809 232.899 71.647C233.188 71.197 231.51 67.788 230.854 67.64C229.703 67.408 228.23 69.428 227.606 70.18C225.648 72.5533 224.408 75.4357 224.03 78.489L224.035 78.485Z" fill="#000E7D"/>
<path opacity="0.1" d="M247.4 52.793C246.938 52.8011 246.483 52.9132 246.07 53.121C245.657 53.3287 245.296 53.6267 245.014 53.993C244.416 54.9642 244.072 56.0701 244.014 57.209C243.429 60.8138 242.143 64.2689 240.229 67.379" fill="black"/>
<path opacity="0.1" d="M250.68 55.359C250.042 55.3732 249.419 55.5531 248.873 55.8812C248.326 56.2093 247.874 56.6741 247.561 57.23C247.135 58.2416 246.87 59.3135 246.776 60.407C246.225 62.8313 245.161 65.1095 243.657 67.089" fill="black"/>
<path d="M403.522 181.089V173.102C403.52 167.222 401.183 161.583 397.025 157.426C392.866 153.269 387.227 150.934 381.347 150.934H65.907C60.027 150.934 54.3878 153.269 50.2294 157.426C46.071 161.583 43.7339 167.222 43.732 173.102V187.829L403.522 181.089Z" fill="#33323D"/>
<path d="M153.659 141.568C153.659 141.568 152.759 197.429 162.659 215.809C172.559 234.189 176.808 314.148 176.808 314.148C176.808 314.148 280.632 324.888 352.983 301.286C425.334 277.684 579.281 268.034 579.281 268.034L553.342 93.174C553.342 93.174 425.176 84.955 352.266 119.728C279.356 154.501 153.659 141.568 153.659 141.568Z" fill="#8DD070"/>
<path opacity="0.1" d="M153.659 141.568C153.659 141.568 152.759 197.429 162.659 215.809C172.559 234.189 176.808 314.148 176.808 314.148C176.808 314.148 280.632 324.888 352.983 301.286C425.334 277.684 579.281 268.034 579.281 268.034L553.342 93.174C553.342 93.174 425.176 84.955 352.266 119.728C279.356 154.501 153.659 141.568 153.659 141.568Z" fill="black"/>
<path d="M176.637 161.975C176.637 161.975 173.389 208.067 181.537 222.794C189.685 237.521 190.065 303.267 190.065 303.267C190.065 303.267 283.503 307.602 349.965 284.977C416.427 262.352 556.102 247.677 556.102 247.677L540.235 104.683C540.235 104.683 424.667 103.493 357.217 135.34C289.767 167.187 176.637 161.975 176.637 161.975Z" fill="#8DD070"/>
<path opacity="0.1" d="M356.19 258.796C369.485 257.14 377.383 232.682 373.832 204.168C370.28 175.654 356.624 153.882 343.329 155.538C330.034 157.194 322.136 181.651 325.688 210.165C329.239 238.679 342.896 260.452 356.19 258.796Z" fill="black"/>
<path opacity="0.2" d="M483.076 7.99402C483.076 7.99402 358.563 39.507 299.846 94.975C241.129 150.443 117.523 176.709 117.523 176.709C117.523 176.709 133.807 230.145 148.868 244.603C163.929 259.061 192.497 333.867 192.497 333.867C192.497 333.867 294.604 312.219 356.215 267.534C417.826 222.849 561.415 166.417 561.415 166.417L483.076 7.99402Z" fill="black"/>
<path d="M115.651 168.708C115.651 168.708 131.928 222.151 146.977 236.608C162.026 251.065 190.606 325.87 190.606 325.87C190.606 325.87 292.726 304.229 354.343 259.546C415.96 214.863 559.535 158.446 559.535 158.446L481.197 0C481.197 0 356.69 31.513 297.974 86.981C239.258 142.449 115.651 168.708 115.651 168.708Z" fill="#8DD070"/>
<path opacity="0.1" d="M115.651 168.708C115.651 168.708 131.928 222.151 146.977 236.608C162.026 251.065 190.606 325.87 190.606 325.87C190.606 325.87 292.726 304.229 354.343 259.546C415.96 214.863 559.535 158.446 559.535 158.446L481.197 0C481.197 0 356.69 31.513 297.974 86.981C239.258 142.449 115.651 168.708 115.651 168.708Z" fill="black"/>
<path d="M143.762 181.081C143.762 181.081 154.817 225.951 167.094 237.463C179.371 248.975 199.894 311.421 199.894 311.421C199.894 311.421 290.148 286.865 346.462 244.936C402.776 203.007 531.222 146.236 531.222 146.236L472.246 14.965C472.246 14.965 361.893 49.288 307.462 100.3C253.031 151.312 143.762 181.081 143.762 181.081Z" fill="#8DD070"/>
<path opacity="0.1" d="M344.382 218.132C356.527 212.477 356.539 186.776 344.409 160.727C332.279 134.679 312.601 118.147 300.456 123.803C288.311 129.458 288.298 155.159 300.428 181.208C312.558 207.256 332.237 223.788 344.382 218.132Z" fill="black"/>
<path opacity="0.1" d="M412.037 188.927V410.802C412.037 413.322 411.541 415.817 410.576 418.145C409.612 420.473 408.198 422.588 406.416 424.37C404.634 426.151 402.518 427.564 400.19 428.528C397.861 429.491 395.366 429.987 392.846 429.986H62.929C57.8421 429.984 52.9641 427.963 49.3677 424.365C45.7713 420.768 43.751 415.889 43.751 410.802V166.56C53.205 170.071 53.205 170.071 62.929 169.776H392.846C397.929 169.776 402.804 171.792 406.402 175.383C410 178.973 412.026 183.844 412.037 188.927Z" fill="black"/>
<path d="M412.037 191.751V413.625C412.035 418.714 410.013 423.593 406.414 427.191C402.815 430.788 397.935 432.809 392.846 432.809H62.929C57.8421 432.807 52.9641 430.786 49.3677 427.188C45.7713 423.59 43.751 418.712 43.751 413.625V169.377C53.205 172.877 53.205 172.877 62.929 172.593H392.846C397.93 172.593 402.807 174.61 406.405 178.202C410.003 181.794 412.029 186.667 412.037 191.751Z" fill="#504F60"/>
<path opacity="0.1" d="M411.098 273.78V344.735H342.284C337.625 344.735 333.011 343.817 328.707 342.034C324.402 340.251 320.491 337.638 317.197 334.343C313.902 331.049 311.289 327.138 309.506 322.833C307.723 318.529 306.805 313.915 306.805 309.256C306.805 304.597 307.723 299.983 309.506 295.679C311.289 291.374 313.902 287.463 317.197 284.169C320.491 280.874 324.402 278.261 328.707 276.478C333.011 274.695 337.625 273.777 342.284 273.777L411.098 273.78Z" fill="black"/>
<path d="M412.037 271.89V342.858H343.224C338.565 342.858 333.951 341.94 329.647 340.157C325.342 338.374 321.431 335.761 318.137 332.466C314.842 329.172 312.229 325.261 310.446 320.956C308.663 316.652 307.745 312.038 307.745 307.379C307.745 302.72 308.663 298.106 310.446 293.802C312.229 289.497 314.842 285.586 318.137 282.292C321.431 278.997 325.342 276.384 329.647 274.601C333.951 272.818 338.565 271.9 343.224 271.9L412.037 271.89Z" fill="#33323D"/>
<path opacity="0.1" d="M346.523 323.093C354.163 323.093 360.356 316.9 360.356 309.26C360.356 301.62 354.163 295.427 346.523 295.427C338.883 295.427 332.69 301.62 332.69 309.26C332.69 316.9 338.883 323.093 346.523 323.093Z" fill="black"/>
<path d="M347.462 321.216C355.102 321.216 361.295 315.023 361.295 307.383C361.295 299.743 355.102 293.55 347.462 293.55C339.822 293.55 333.629 299.743 333.629 307.383C333.629 315.023 339.822 321.216 347.462 321.216Z" fill="#000E7D"/>
<path d="M531.483 271.278C532.03 277.201 527.547 282.95 528.853 288.751C529.136 289.992 529.67 291.163 529.863 292.417C530.403 295.864 528.352 299.125 526.39 302.006L509.54 326.727C508.865 327.814 508.057 328.812 507.135 329.698C503.919 332.566 499.083 332.27 494.851 333.126C491.876 333.73 489.068 334.972 486.619 336.766C486.517 336.853 486.452 336.977 486.437 337.111C486.423 337.245 486.46 337.379 486.542 337.486C487.241 338.438 488.168 339.2 489.237 339.703C490.306 340.205 491.485 340.431 492.664 340.361C493.108 340.946 492.664 341.802 492.021 342.22C491.114 342.863 489.873 343.02 489.693 344.548C489.629 345.082 489.737 345.623 490.002 346.092C490.681 347.131 491.737 347.867 492.947 348.143C498.78 349.924 505.083 346.792 509.447 342.529C513.811 338.266 516.947 332.882 521.229 328.541C523.602 326.141 526.297 324.084 528.741 321.756C533.616 317.113 537.404 311.466 541.063 305.813C542.256 304.169 543.159 302.333 543.732 300.385C544.195 298.411 543.976 296.417 544.498 294.507C545.18 291.999 547.013 290.007 548.537 287.907C551.527 283.791 553.521 278.756 553.129 273.688C552.737 268.62 549.592 263.61 544.807 261.888C543.324 261.293 541.688 261.193 540.144 261.605C538.182 262.205 536.735 263.83 535.398 265.38L532.182 269.08C531.38 269.891 530.747 270.853 530.317 271.91C530.111 272.441 530.062 273.019 530.176 273.577C530.29 274.135 530.562 274.648 530.96 275.055" fill="#FBBEBE"/>
<path opacity="0.85" d="M531.483 271.278C532.03 277.201 527.547 282.95 528.853 288.751C529.136 289.992 529.67 291.163 529.863 292.417C530.403 295.864 528.352 299.125 526.39 302.006L509.54 326.727C508.865 327.814 508.057 328.812 507.135 329.698C503.919 332.566 499.083 332.27 494.851 333.126C491.876 333.73 489.068 334.972 486.619 336.766C486.517 336.853 486.452 336.977 486.437 337.111C486.423 337.245 486.46 337.379 486.542 337.486C487.241 338.438 488.168 339.2 489.237 339.703C490.306 340.205 491.485 340.431 492.664 340.361C493.108 340.946 492.664 341.802 492.021 342.22C491.114 342.863 489.873 343.02 489.693 344.548C489.629 345.082 489.737 345.623 490.002 346.092C490.681 347.131 491.737 347.867 492.947 348.143C498.78 349.924 505.083 346.792 509.447 342.529C513.811 338.266 516.947 332.882 521.229 328.541C523.602 326.141 526.297 324.084 528.741 321.756C533.616 317.113 537.404 311.466 541.063 305.813C542.256 304.169 543.159 302.333 543.732 300.385C544.195 298.411 543.976 296.417 544.498 294.507C545.18 291.999 547.013 290.007 548.537 287.907C551.527 283.791 553.521 278.756 553.129 273.688C552.737 268.62 549.592 263.61 544.807 261.888C543.324 261.293 541.688 261.193 540.144 261.605C538.182 262.205 536.735 263.83 535.398 265.38L532.182 269.08C531.38 269.891 530.747 270.853 530.317 271.91C530.111 272.441 530.062 273.019 530.176 273.577C530.29 274.135 530.562 274.648 530.96 275.055" fill="#A1616A"/>
<path d="M544.236 423.761C540.557 426.006 535.972 426.141 531.695 425.62C531.007 425.537 530.19 425.485 529.766 426.02C529.123 426.792 529.882 427.949 530.666 428.547C533.188 430.441 536.152 431.661 539.277 432.091C542.067 432.487 544.884 432.674 547.702 432.651C555.419 432.786 563.137 432.915 570.732 431.809C571.182 431.775 571.62 431.648 572.018 431.436C572.508 431.092 572.848 430.575 572.97 429.989C573.157 428.98 573.069 427.94 572.718 426.976C572.366 426.013 571.763 425.161 570.97 424.51C569.371 423.23 567.551 422.254 565.6 421.629L558.912 419.029C557.343 418.418 554.828 416.797 553.124 416.929C549.921 417.149 546.89 422.204 544.236 423.761Z" fill="#3F3D56"/>
<path opacity="0.05" d="M544.236 423.761C540.557 426.006 535.972 426.141 531.695 425.62C531.007 425.537 530.19 425.485 529.766 426.02C529.123 426.792 529.882 427.949 530.666 428.547C533.188 430.441 536.152 431.661 539.277 432.091C542.067 432.487 544.884 432.674 547.702 432.651C555.419 432.786 563.137 432.915 570.732 431.809C571.182 431.775 571.62 431.648 572.018 431.436C572.508 431.092 572.848 430.575 572.97 429.989C573.157 428.98 573.069 427.94 572.718 426.976C572.366 426.013 571.763 425.161 570.97 424.51C569.371 423.23 567.551 422.254 565.6 421.629L558.912 419.029C557.343 418.418 554.828 416.797 553.124 416.929C549.921 417.149 546.89 422.204 544.236 423.761Z" fill="black"/>
<path d="M548.924 334.973C546.139 338.673 543.258 342.954 543.946 347.539C544.319 350.009 545.702 352.189 546.718 354.472C547.987 357.616 548.925 360.884 549.518 364.222C550.56 369.071 551.608 373.933 552.245 378.859C552.972 384.422 549.557 400.519 549.245 406.121C549.312 407.481 548.895 408.821 548.068 409.903C547.702 410.289 547.213 410.598 547.045 411.103C546.947 411.586 547.027 412.089 547.27 412.518C548.991 416.039 551.976 418.781 555.63 420.197C559.212 421.697 567.849 424.297 571.753 424.435C572.268 424.492 572.788 424.423 573.271 424.235C573.79 423.918 574.2 423.449 574.442 422.891C577.242 417.54 574.551 398.517 574.59 392.478C574.629 387.442 575.819 382.439 575.6 377.41C575.42 373.371 574.314 369.423 573.947 365.397C573.304 358.797 574.513 352.168 575.728 345.647C576.654 340.647 577.587 335.64 578.776 330.701C579.372 327.654 580.458 324.724 581.992 322.025C583.278 319.948 585.085 318.211 586.584 316.237C590.743 310.784 592.591 303.915 591.729 297.111C591.639 296.468 582.082 299.536 581.24 299.902C577.802 301.358 574.64 303.391 571.889 305.915C569.677 308.024 567.934 310.841 565.998 313.202C563.259 316.542 560.553 319.905 557.882 323.292C554.835 327.161 551.849 331.054 548.924 334.973Z" fill="#464353"/>
<path opacity="0.05" d="M548.924 334.752C546.139 338.452 543.258 342.739 543.946 347.318C544.319 349.794 545.702 351.974 546.718 354.257C547.987 357.399 548.925 360.664 549.518 364C550.56 368.855 551.608 373.718 552.245 378.637C552.972 384.206 549.557 400.297 549.245 405.899C549.312 407.261 548.895 408.603 548.068 409.687C547.702 410.066 547.213 410.375 547.045 410.877C546.946 411.36 547.026 411.863 547.27 412.292C548.998 415.816 551.979 418.569 555.63 420.01C559.212 421.553 567.849 422.897 571.753 423.026C572.268 423.083 572.788 423.014 573.271 422.826C573.791 422.513 574.201 422.045 574.442 421.488C577.242 416.137 574.551 398.336 574.59 392.288C574.629 387.246 575.819 382.249 575.6 377.213C575.42 373.174 574.314 369.225 573.947 365.206C573.304 358.606 574.513 351.971 575.728 345.449C576.654 340.449 577.587 335.449 578.776 330.503C579.372 327.456 580.458 324.526 581.992 321.827C583.278 319.75 585.085 318.013 586.584 316.039C590.744 310.587 592.592 303.717 591.729 296.913C591.639 296.27 582.082 299.337 581.24 299.704C577.803 301.164 574.641 303.2 571.889 305.724C569.677 307.824 567.934 310.644 565.998 313.004C563.259 316.344 560.553 319.711 557.882 323.104C554.835 326.943 551.849 330.826 548.924 334.752Z" fill="black"/>
<path d="M517.938 253.386C526.558 253.386 533.546 246.398 533.546 237.778C533.546 229.158 526.558 222.17 517.938 222.17C509.318 222.17 502.33 229.158 502.33 237.778C502.33 246.398 509.318 253.386 517.938 253.386Z" fill="#A1616A"/>
<path d="M531.997 237.123C533.439 239.423 535.33 241.409 537.556 242.963C539.783 244.516 542.299 245.605 544.956 246.165L543.779 250.442C541.747 257.786 539.464 265.555 533.791 270.649C534.042 269.388 534.03 268.089 533.758 266.832C533.486 265.575 532.959 264.388 532.209 263.343C530.709 261.259 528.925 259.396 526.909 257.806L517.925 250.024C517.666 249.813 517.448 249.556 517.282 249.265C517.06 248.716 517.06 248.103 517.282 247.554C518.427 243.991 521.694 241.766 524.356 239.361C525.692 238.117 526.885 236.728 527.912 235.219C529.708 232.66 530.82 235.236 531.997 237.123Z" fill="#A1616A"/>
<path d="M497.378 222.087L497.024 219.154C499.487 219.797 501.824 217.701 503.404 215.533C504.984 213.365 506.439 210.813 508.838 209.906C511.751 208.813 514.838 210.549 517.623 212.015C520.741 213.745 524.162 214.859 527.701 215.295C528.266 215.314 528.825 215.404 529.367 215.565C531.181 216.208 532.042 218.485 532.306 220.549C532.57 222.613 532.499 224.806 533.393 226.649C534.036 228.049 535.232 229.08 535.966 230.456C537.895 234.147 536.03 239.196 538.043 242.817L533.043 238.232C532.586 237.814 531.943 237.377 531.435 237.732C531.035 238.015 531.004 238.626 530.843 239.115C530.699 239.438 530.491 239.729 530.232 239.97C529.973 240.211 529.668 240.397 529.335 240.517C529.003 240.637 528.649 240.688 528.296 240.669C527.943 240.649 527.597 240.558 527.28 240.401C526.012 239.672 524.916 238.678 524.065 237.488C521.985 234.829 519.251 232.755 516.129 231.468C514.776 230.962 513.331 230.75 511.889 230.845C510.448 230.94 509.043 231.341 507.768 232.021C505.434 233.339 503.723 236.413 500.861 236.521C496.938 236.669 495.304 229.363 493.491 226.476C494.155 225.977 494.622 225.26 494.81 224.451C494.998 223.641 494.895 222.792 494.52 222.051C494.78 221.939 497.32 221.637 497.378 222.087Z" fill="#464353"/>
<path d="M304.322 130.835C303.068 131.95 301.909 133.168 300.856 134.475C299.796 135.8 299.232 137.453 299.261 139.15C299.267 139.642 299.424 140.12 299.711 140.52C299.858 140.711 300.061 140.851 300.291 140.922C300.522 140.992 300.769 140.989 300.997 140.912C301.255 140.78 301.477 140.586 301.64 140.346C302.32 139.529 303.041 138.748 303.801 138.005C304.078 137.728 304.444 137.439 304.817 137.542C304.984 137.601 305.134 137.701 305.254 137.831C305.687 138.205 306.002 138.697 306.161 139.246C306.213 139.749 306.15 140.256 305.977 140.731C305.803 141.206 305.525 141.635 305.161 141.986C304.43 142.683 303.857 143.53 303.483 144.468C303.383 144.725 303.383 145.011 303.483 145.268C303.607 145.453 303.78 145.6 303.983 145.692C304.904 146.199 305.925 146.498 306.974 146.567C308.023 146.636 309.075 146.474 310.054 146.092C311.34 145.571 312.485 144.677 313.81 144.214C314.384 144.057 314.939 143.842 315.469 143.571C315.848 143.319 316.173 142.994 316.426 142.615C316.679 142.237 316.854 141.812 316.942 141.365C317.11 140.473 317.144 139.56 317.042 138.658C316.882 135.164 316.134 131.722 314.83 128.477C314.754 128.268 314.626 128.082 314.457 127.937C314.264 127.819 314.041 127.759 313.814 127.763C312.168 127.589 309.466 126.747 307.878 127.358C307.323 127.663 306.845 128.09 306.478 128.606C306.18 128.931 304.322 130.404 304.322 130.835Z" fill="#A1616A"/>
<path d="M303.801 129.382C303.801 127.813 301.872 124.025 304.939 123.774C304.939 122.096 302.566 121.054 303.01 119.274C303.151 118.682 303.653 118.2 303.71 117.595C303.903 115.878 300.803 114.945 301.318 113.295C301.511 112.652 302.193 112.279 302.34 111.642C302.687 110.156 300.031 109.494 299.98 107.97C299.98 107.456 300.269 106.97 300.244 106.459C300.244 105.816 299.685 105.327 299.376 104.768C298.576 103.334 298.964 101.115 297.498 100.375C298.469 100.459 298.784 99.018 298.385 98.137C297.986 97.256 297.17 96.491 297.163 95.513C297.211 95.1586 297.211 94.7994 297.163 94.445C296.893 93.506 295.356 93.429 295.098 92.516C295.065 92.1654 295.054 91.813 295.066 91.461C294.966 90.734 294.217 90.271 293.516 90.061C292.788 89.9372 292.087 89.6868 291.445 89.321C290.995 88.98 290.474 88.414 289.992 88.678C289.812 88.787 289.722 88.993 289.587 89.147C289.008 89.822 287.902 89.526 287.175 89.031C285.027 87.571 283.959 84.954 283.503 82.4C283.047 79.846 283.059 77.21 282.487 74.683C282.312 73.8954 282.08 73.1216 281.792 72.368C281.353 71.6411 280.991 70.8702 280.712 70.068C280.596 68.589 283.657 69.599 284.821 69.746C285.951 69.8563 287.069 70.0716 288.159 70.389C289.323 70.8291 290.463 71.3298 291.574 71.889C296.217 73.941 301.825 74.189 305.555 77.638C306.783 78.77 307.819 80.256 309.414 80.77C310.145 80.9101 310.867 81.0968 311.575 81.329C313.344 82.159 313.62 84.506 314.585 86.204C314.888 86.6524 315.153 87.1258 315.376 87.619C315.562 88.2004 315.649 88.8088 315.633 89.419L315.768 93.876C316.156 101.334 316.036 108.809 315.408 116.25C315.151 118.7 314.765 121.221 315.492 123.575C315.685 124.218 315.955 124.823 316.135 125.475C316.294 126.237 316.376 127.012 316.379 127.79L316.479 130.678C316.515 130.902 316.464 131.132 316.338 131.321C316.23 131.408 316.105 131.47 315.97 131.502C315.835 131.535 315.695 131.536 315.56 131.507C311.541 131.147 307.476 128.883 303.682 130.253" fill="#464353"/>
<path d="M487.23 351.256C513.499 351.256 534.795 348.178 534.795 344.381C534.795 340.584 513.499 337.506 487.23 337.506C460.961 337.506 439.665 340.584 439.665 344.381C439.665 348.178 460.961 351.256 487.23 351.256Z" fill="#504F60"/>
<path d="M528.147 344.716C527.311 341.134 526.79 337.989 526.79 337.989C526.863 335.619 526.328 333.27 525.234 331.166V330.188V322.988C525.732 321.68 526.341 320.417 527.054 319.213C528.34 316.949 527.054 308.653 527.054 308.653C527.054 308.653 522.254 296.953 523.414 289.533C524.574 282.113 513.549 256.58 513.549 256.58C513.617 254.118 513.964 251.671 514.584 249.287C514.702 248.786 514.749 248.27 514.725 247.756V247.629C514.558 242.735 510.686 233.564 510.686 233.564L511.207 216.084C511.207 216.084 513.676 205.794 509.651 191.935C508.243 187.105 507.342 183.24 506.77 180.256C506.706 179.922 506.641 179.613 506.59 179.285C514.88 177.999 521.215 176.97 521.215 176.97C521.215 176.97 516.404 156.847 513.157 153.323C509.91 149.799 507.311 138.731 507.311 138.731C507.311 138.731 505.62 124.525 508.353 120.37C511.086 116.215 511.472 109.051 511.472 109.051C511.472 109.051 517.704 104.551 518.488 102.511C519.272 100.471 520.565 95.971 520.565 93.585C520.565 91.199 519.787 89.085 520.044 87.797C520.301 86.509 518.224 81.758 519.266 79.497C519.536 78.8017 519.675 78.0627 519.678 77.317C519.68 77.2957 519.68 77.2742 519.678 77.253C519.687 75.2732 519.504 73.2973 519.131 71.353C517.328 69.8304 515.224 68.7059 512.957 68.053L512.822 67.513L512.468 66.098C512.271 65.9675 512.067 65.8474 511.857 65.738V65.224L511.799 63.179L512.776 58.587C514.705 50.6 504.036 49.41 504.036 49.41C503.389 48.1845 502.313 47.2409 501.013 46.76C498.872 46.008 500.659 58.773 501.656 59.622C502.408 60.265 504.736 64.24 505.862 66.207L506.042 66.529C505.866 66.6875 505.702 66.8597 505.553 67.044L505.958 69.816L506.022 70.24C505.316 71.1182 504.744 72.0952 504.322 73.14C504.322 73.14 506.251 75.275 505.885 77.64C505.738 79.5079 505.957 81.3866 506.528 83.171C506.412 83.036 505.043 81.557 503.673 81.917C502.303 82.277 498.473 83.428 498.473 83.428C498.473 83.428 495.618 83.928 495.901 84.56C496.184 85.192 493.971 87.96 493.971 87.96L486.292 80.68C486.215 80.461 486.131 80.243 486.067 80.037C485.754 78.9872 485.538 77.9106 485.424 76.821C486.261 76.6222 487.082 76.3622 487.881 76.043C488.688 75.766 489.416 75.2984 490.003 74.68C490.652 73.6789 491.075 72.5489 491.244 71.368C491.844 69.13 493.173 67.143 494.093 65.014C495.656 61.4133 496.16 57.4419 495.547 53.565C495.429 52.3719 495.025 51.2249 494.37 50.221C493.116 48.497 490.839 47.796 489.187 46.421C487.535 45.046 486.467 42.942 484.537 41.921C482.7 41.1265 480.655 40.951 478.71 41.421C474.866 42.0548 471.174 43.3983 467.822 45.383C466.703 46.026 465.468 46.817 464.182 46.583C463.107 46.269 462.178 45.5859 461.558 44.654C461.572 44.6385 461.583 44.6198 461.588 44.5994C461.593 44.579 461.593 44.5576 461.588 44.5372C461.583 44.5168 461.573 44.498 461.559 44.4824C461.545 44.4668 461.527 44.455 461.507 44.448C460.692 46.2536 460.282 48.216 460.307 50.197C460.3 50.5042 460.313 50.8115 460.346 51.117V51.702C460.346 51.839 460.326 51.9753 460.288 52.107C460.126 52.5002 459.88 52.8534 459.568 53.142C459.332 53.41 459.117 53.6959 458.925 53.997C458.942 53.8874 458.975 53.7811 459.025 53.682C458.533 54.3979 458.256 55.2391 458.225 56.107C458.189 56.7383 458.396 57.3594 458.804 57.843C459.189 58.2157 459.609 58.5506 460.058 58.843C459.905 59.6918 459.828 60.5525 459.826 61.415C459.841 63.9724 460.515 66.4828 461.783 68.7034C463.052 70.924 464.872 72.7797 467.068 74.091C467.158 74.303 467.242 74.522 467.325 74.734C468.439 77.3728 468.919 80.2362 468.725 83.094C468.711 83.296 468.68 83.4966 468.635 83.694C468.603 83.894 468.442 83.906 468.358 84.016C468.358 84.016 455.669 84.145 452.686 81.444C449.703 78.743 445.149 88.044 445.149 88.044C445.149 88.044 440.602 88.925 439.689 88.044C438.776 87.163 433.457 87.922 433.457 87.922C431.278 85.984 428.442 84.9492 425.527 85.028C423.761 83.6856 421.812 82.6027 419.739 81.812L419.598 81.761C418.683 81.4276 417.705 81.3045 416.736 81.401C416.736 81.401 410.498 76.256 408.678 73.478C406.858 70.7 398.195 60.442 398.157 60.397V59.897L398.057 58.405C397.8 58.4452 397.54 58.4666 397.279 58.469C397.234 58.321 397.17 58.147 397.105 57.948C396.606 56.4927 395.991 55.0799 395.266 53.723C395.266 53.723 395.266 51.839 395.813 51.363C396.36 50.887 395.588 43.974 395.588 43.974C395.588 43.974 389.967 30.835 384.932 40.643C384.932 40.643 375.414 46.991 383.401 54.386C383.401 54.386 386.616 55.929 387.041 57.151C387.341 57.942 388.417 60.161 389.141 61.651L389.469 62.294L389.379 62.371L389.495 63.606L389.546 64.082C388.046 64.937 387.019 65.782 387.269 66.423C387.712 67.5139 388.017 68.6561 388.176 69.823C388.176 69.823 399.225 83.663 400.652 89.573C400.652 89.573 430.28 107.181 440.024 108.436L438.3 117.215C438.049 119.597 437.92 121.991 437.914 124.386C438.043 126.27 436.743 134.824 436.743 134.824C436.743 134.824 435.052 147.403 433.624 149.165C432.196 150.927 432.454 158.471 432.454 158.471C432.117 162.082 431.472 165.658 430.525 169.16C429.097 173.938 430.133 179.86 430.133 179.86C430.133 179.86 425.2 191.179 437.021 183.506C437.021 183.506 442.809 183.146 449.51 182.914V183.557C449.51 184.419 449.51 185.351 449.465 186.329C449.375 192.812 449.336 201.764 449.632 208.504C450.153 220.453 453.793 244.104 453.793 244.104V256.004C453.558 257.122 453.441 258.262 453.446 259.404C453.369 263.592 454.485 267.716 456.662 271.295L457.575 279.218C457.575 279.218 459.71 284.44 459.749 287.579C459.741 287.832 459.711 288.083 459.659 288.331C459.577 288.731 459.543 289.139 459.559 289.547C459.437 293.147 461.604 301.766 461.604 301.766C461.604 301.766 461.733 310.442 463.032 310.95C464.145 311.381 461.546 315.95 460.775 317.259C460.754 317.179 460.739 317.097 460.73 317.015L460.569 317.272C460.301 317.974 460.164 318.72 460.164 319.472C460.091 320.064 460.187 320.665 460.443 321.205C460.698 321.745 461.101 322.201 461.605 322.52C464.074 324.031 465.399 325.285 463.305 325.787C462.534 325.907 461.77 326.068 461.016 326.269C460.995 326.168 460.958 326.07 460.907 325.98C460.611 326.096 460.365 326.31 460.209 326.587C460.053 326.863 459.998 327.185 460.052 327.498C460.072 328.518 460.335 329.519 460.818 330.418C461.739 332.69 462.92 334.848 464.336 336.849L465.336 336.74C465.189 337.121 464.994 337.482 464.757 337.814C464.378 338.353 463.875 338.794 463.291 339.1C462.747 339.426 462.14 339.634 461.51 339.711C460.806 339.734 460.114 339.905 459.48 340.213C458.846 340.521 458.284 340.959 457.831 341.499C456.545 343.178 455.722 345.461 458.281 347.467L467.574 350.683C467.574 350.683 483.562 352.76 482.713 349.172C481.864 345.584 481.35 342.445 481.35 342.445C481.419 340.254 480.978 338.077 480.064 336.085C479.896 335.76 479.707 335.446 479.498 335.146L480.064 335.088C480.064 335.088 481.234 327.158 482.791 325.653C483.151 325.306 483.235 325.01 483.151 324.83C483.312 324.399 482.9 324.148 482.379 324L482.263 324.315C481.754 324.204 481.234 324.145 480.713 324.141C480.713 324.141 480.192 319.993 481.884 318.482C482.021 318.31 482.12 318.111 482.177 317.899C482.233 317.686 482.245 317.464 482.212 317.247C482.225 316.678 482.164 316.11 482.032 315.556C482.015 315.591 481.996 315.624 481.974 315.656C481.012 312.303 479.764 309.039 478.244 305.9C478.244 305.9 478.115 302.131 479.157 300.62C480.199 299.109 479.022 280.12 479.022 280.12C479.022 280.12 479.414 270.943 478.244 266.666C477.074 262.389 479.672 257.354 479.672 257.354V257.02L479.524 255.573C479.52 255.603 479.52 255.633 479.524 255.663C479.26 253.232 478.765 248.827 478.399 246.794C477.878 243.9 478.534 230.073 478.534 230.073L480.868 224.156L485.029 234.349L489.447 247.929C490.705 249.619 491.478 251.62 491.685 253.717V254.141C491.649 254.442 491.632 254.745 491.633 255.048C491.555 256.764 492.025 258.461 492.977 259.891C492.977 259.891 494.147 266.322 495.967 267.936C497.787 269.55 497.787 272.714 497.787 272.714C497.787 272.714 499.993 282.026 501.003 283.647C501.878 285.023 501.923 288.792 501.916 289.969V290.303C501.916 290.303 502.225 293.634 502.216 296.425V297.425C502.219 297.401 502.219 297.378 502.216 297.354C502.215 298.117 502.125 298.877 501.946 299.618L501.908 299.747C501.9 299.589 501.916 299.431 501.953 299.278C501.501 301.173 501.285 303.118 501.31 305.066C501.252 308.41 501.76 312.372 503.786 314.713C507.297 318.739 509.503 318.237 509.503 318.237C509.503 318.237 507.818 323.266 505.734 324.276C505.655 324.313 505.581 324.36 505.515 324.417C505.505 324.316 505.488 324.216 505.464 324.117C505.232 324.368 505.055 324.665 504.944 324.988C504.833 325.311 504.791 325.654 504.821 325.995C504.917 328.68 505.812 331.276 507.393 333.449C507.885 333.931 508.488 334.284 509.149 334.478C509.044 334.552 508.935 334.619 508.821 334.678C508.59 334.805 508.351 334.919 508.107 335.019C507.769 335.162 507.411 335.255 507.046 335.295C506.341 335.314 505.648 335.483 505.014 335.792C504.379 336.1 503.818 336.54 503.368 337.083C502.082 338.755 501.259 341.038 503.818 343.045L513.111 346.261C513.111 346.261 528.987 348.298 528.147 344.716Z" fill="url(#paint0_linear)"/>
<path d="M467.113 350.658L458.113 347.442C455.631 345.435 456.422 343.152 457.676 341.474C458.108 340.939 458.649 340.502 459.264 340.194C459.878 339.885 460.552 339.712 461.239 339.686C461.849 339.608 462.434 339.4 462.956 339.075C463.527 338.765 464.016 338.324 464.384 337.789C465.041 336.747 465.395 335.542 465.407 334.31C465.407 334.31 475.285 331.416 477.986 334.31C478.469 334.834 478.874 335.425 479.186 336.066C480.083 338.064 480.522 340.237 480.472 342.426C480.472 342.426 480.972 345.564 481.79 349.153C482.608 352.742 467.113 350.658 467.113 350.658Z" fill="#2D293D"/>
<path d="M511.128 346.221L502.128 343.005C499.646 340.998 500.437 338.715 501.691 337.043C502.119 336.506 502.659 336.067 503.273 335.759C503.887 335.45 504.561 335.278 505.248 335.255C505.604 335.219 505.951 335.126 506.277 334.979C506.515 334.879 506.746 334.765 506.971 334.638C509.486 333.255 509.421 329.86 509.421 329.86C509.421 329.86 519.293 326.966 522 329.86C522.362 330.252 522.679 330.683 522.945 331.146C524.005 333.263 524.522 335.61 524.45 337.976C524.45 337.976 524.95 341.121 525.736 344.703C526.522 348.285 511.128 346.221 511.128 346.221Z" fill="#2D293D"/>
<path opacity="0.1" d="M477.988 334.303C478.471 334.827 478.876 335.418 479.188 336.059L464.396 337.776C465.053 336.734 465.407 335.529 465.419 334.297C465.419 334.297 475.287 331.409 477.988 334.303Z" fill="black"/>
<path opacity="0.1" d="M522.955 331.159V333.927C520.655 337.715 509.52 336.885 506.286 334.988C506.524 334.888 506.756 334.774 506.981 334.647C509.496 333.264 509.431 329.869 509.431 329.869C509.431 329.869 519.303 326.975 522.01 329.869C522.372 330.262 522.689 330.695 522.955 331.159Z" fill="black"/>
<path d="M524.711 319.21C524.023 320.418 523.435 321.68 522.955 322.985V332.925C520.434 337.073 507.355 335.69 505.591 333.425C503.827 331.16 501.977 325.27 503.964 324.248C505.951 323.226 507.611 318.209 507.611 318.209C507.611 318.209 505.469 318.709 502.074 314.685C498.679 310.661 499.688 301.733 500.318 299.598C500.948 297.463 500.318 290.292 500.318 290.292C500.318 290.292 500.447 285.256 499.443 283.623C498.439 281.99 496.298 272.69 496.298 272.69C496.298 272.69 496.298 269.545 494.536 267.912C492.774 266.279 491.642 259.86 491.642 259.86C490.612 258.256 490.169 256.345 490.388 254.451C490.761 251.306 488.246 247.91 488.246 247.91L483.969 234.321L479.943 224.134L477.679 230.044C477.679 230.044 477.036 243.877 477.557 246.765C478.078 249.653 478.843 257.331 478.843 257.331C478.843 257.331 476.328 262.36 477.46 266.637C478.592 270.914 478.18 280.104 478.18 280.104C478.18 280.104 479.312 299.089 478.302 300.604C477.292 302.119 477.421 305.89 477.421 305.89C477.421 305.89 482.566 316.952 480.945 318.463C479.324 319.974 479.813 324.122 479.813 324.122C479.813 324.122 483.331 324.122 481.826 325.633C480.321 327.144 479.183 335.067 479.183 335.067L463.973 336.848C462.596 334.842 461.455 332.684 460.573 330.417C458.56 325.742 460.946 326.269 462.973 325.761C465 325.253 463.719 324.005 461.327 322.494C458.935 320.983 460.327 317.587 460.327 317.587C460.327 317.587 463.973 311.426 462.713 310.924C461.453 310.422 461.33 301.74 461.33 301.74C461.33 301.74 458.815 291.45 459.446 288.659C460.077 285.868 457.428 279.225 457.428 279.225L456.547 271.302C453.856 266.806 452.874 261.491 453.782 256.33V244.114C453.782 244.114 450.258 220.473 449.756 208.524C449.434 200.871 449.525 190.424 449.627 183.912C449.691 180.259 449.756 177.835 449.756 177.835L504.086 172.176C504.172 174.89 504.501 177.591 505.07 180.247C505.629 183.231 506.498 187.096 507.861 191.926C511.761 205.759 509.372 216.068 509.372 216.068L508.864 233.554C508.864 233.554 513.642 245.246 512.639 249.272C512.033 251.663 511.692 254.113 511.623 256.578C511.623 256.578 522.312 282.11 521.18 289.531C520.048 296.952 524.698 308.651 524.698 308.651C524.698 308.651 525.971 316.946 524.711 319.21Z" fill="#464353"/>
<path opacity="0.05" d="M493.648 253.689L510.189 251.483C510.189 251.483 500.819 261.046 493.648 253.689Z" fill="black"/>
<path opacity="0.1" d="M507.797 235.322C507.797 235.322 508.363 241.174 504.781 243.374C504.781 243.374 511.193 242.371 507.797 235.322Z" fill="black"/>
<path opacity="0.1" d="M506.781 216.71C506.781 216.71 492.954 228.093 487.925 227.148C482.896 226.203 506.781 216.71 506.781 216.71Z" fill="black"/>
<path opacity="0.1" d="M473.146 259.027C473.146 259.027 462.646 261.413 462.329 265.627C462.012 269.841 473.146 259.027 473.146 259.027Z" fill="black"/>
<path opacity="0.05" d="M475.454 311.48C475.454 311.48 460.617 314.245 464.83 316.13C468.443 317.562 472.166 318.699 475.962 319.53C475.962 319.53 480.754 319.776 475.454 311.48Z" fill="black"/>
<g opacity="0.05">
<path opacity="0.05" d="M461.833 319.127C461.46 318.894 461.144 318.58 460.909 318.208C460.674 317.836 460.526 317.416 460.476 316.979L460.322 317.243C460.322 317.243 458.939 320.643 461.332 322.143C461.602 322.317 461.866 322.49 462.104 322.657C462.548 322.574 463.024 322.509 463.48 322.393C465.505 321.892 464.225 320.638 461.833 319.127Z" fill="black"/>
<path opacity="0.05" d="M480.947 318.117C481.359 317.744 481.347 316.779 481.095 315.544C480.5 316.663 480.21 317.918 480.253 319.184C480.409 318.785 480.645 318.421 480.947 318.117Z" fill="black"/>
<path opacity="0.05" d="M478.663 255.548C478.118 257.036 477.781 258.592 477.663 260.172C477.95 259.08 478.335 258.017 478.814 256.995L478.663 255.548Z" fill="black"/>
<path opacity="0.05" d="M512.646 248.95C512.745 248.498 512.79 248.036 512.781 247.574C512.594 248.513 512.466 249.381 512.37 250.147C512.453 249.754 512.542 249.384 512.646 248.95Z" fill="black"/>
<path opacity="0.05" d="M478.306 300.265C478.594 299.361 478.72 298.413 478.679 297.465C478.214 298.585 477.967 299.783 477.952 300.996C478.04 300.738 478.159 300.492 478.306 300.263V300.265Z" fill="black"/>
<path opacity="0.05" d="M481.392 323.982C480.612 326.505 480.034 329.085 479.662 331.699L464.452 333.455C463.075 331.449 461.934 329.291 461.052 327.024C460.89 326.663 460.746 326.294 460.621 325.918C459.708 326.336 459.335 327.281 460.544 330.04C461.433 332.306 462.577 334.463 463.953 336.471L479.163 334.709C479.163 334.709 480.295 326.786 481.8 325.275C482.574 324.548 482.098 324.169 481.392 323.982Z" fill="black"/>
<path opacity="0.05" d="M461.332 301.396C461.332 301.396 461.454 310.072 462.715 310.573C463.358 309.139 463.776 307.773 463.215 307.55C461.929 307.05 461.832 298.366 461.832 298.366C461.832 298.366 459.317 288.076 459.948 285.285C460.579 282.494 457.935 275.857 457.935 275.857L457.054 267.934C454.363 263.438 453.381 258.123 454.289 252.962V240.744C454.289 240.744 450.765 217.103 450.263 205.154C449.941 197.501 450.032 187.054 450.134 180.542C450.134 179.365 450.173 178.323 450.192 177.442L449.761 177.487C449.761 177.487 449.69 179.905 449.632 183.564C449.532 190.079 449.432 200.523 449.761 208.17C450.261 220.119 453.78 243.77 453.78 243.77V255.989C452.877 261.148 453.861 266.46 456.552 270.954L457.427 278.877C457.427 278.877 460.07 285.54 459.44 288.311C458.81 291.082 461.332 301.396 461.332 301.396Z" fill="black"/>
<path opacity="0.05" d="M506.105 330.066C504.869 328.277 504.046 326.236 503.693 324.091C502.143 325.491 503.925 330.934 505.623 333.091C507.379 335.355 520.46 336.737 522.987 332.583V330.191C519.559 333.558 507.764 332.207 506.105 330.066Z" fill="black"/>
<path opacity="0.05" d="M525.218 315.854C524.528 317.062 523.939 318.325 523.456 319.629V321.411C523.839 320.548 524.268 319.707 524.742 318.89C525.14 317.9 525.328 316.838 525.295 315.771C525.295 315.771 525.237 315.828 525.218 315.854Z" fill="black"/>
<path opacity="0.05" d="M506.876 317.84C507.354 316.871 507.769 315.872 508.117 314.849C508.117 314.849 505.976 315.349 502.58 311.325C500.111 308.399 499.969 302.868 500.323 299.254C499.68 301.396 498.683 310.322 502.079 314.348C504.298 316.978 505.976 317.673 506.876 317.84Z" fill="black"/>
<path opacity="0.05" d="M500.317 289.949C500.539 292.427 500.623 294.916 500.568 297.403C500.631 297.01 500.717 296.622 500.825 296.239C501.468 294.097 500.825 286.933 500.825 286.933C500.825 286.933 500.954 281.897 499.944 280.264C498.934 278.631 496.831 269.318 496.831 269.318C496.831 269.318 496.831 266.173 495.069 264.54C493.307 262.907 492.175 256.488 492.175 256.488C491.135 254.887 490.681 252.976 490.889 251.079C491.269 247.934 488.754 244.539 488.754 244.539L484.477 230.959L480.451 220.772L478.181 226.689C478.181 226.689 478.181 227.435 478.104 228.618L479.943 223.818L483.969 233.986L488.246 247.569C488.246 247.569 490.761 250.969 490.381 254.11C490.173 256.007 490.627 257.918 491.667 259.519C491.667 259.519 492.799 265.95 494.561 267.571C496.323 269.192 496.317 272.349 496.317 272.349C496.317 272.349 498.458 281.655 499.462 283.282C500.466 284.909 500.317 289.949 500.317 289.949Z" fill="black"/>
</g>
<path d="M510.877 58.556L509.932 63.148L509.99 65.193L510.028 66.693L504.78 67.233L504.196 66.15C503.109 64.182 500.852 60.182 500.125 59.564C499.154 58.754 497.425 45.981 499.482 46.74C500.749 47.2292 501.789 48.1709 502.402 49.383C502.402 49.383 512.735 50.568 510.877 58.556Z" fill="#A1616A"/>
<path opacity="0.1" d="M510.028 66.697L504.78 67.237L504.195 66.15C504.901 65.3464 505.863 64.8124 506.919 64.6388C507.974 64.4652 509.057 64.6628 509.983 65.198L510.028 66.697Z" fill="black"/>
<path d="M511.353 69.186L504.433 70.786L504.285 69.757L503.893 66.985C504.271 66.4831 504.745 66.0611 505.288 65.7433C505.83 65.4255 506.43 65.2181 507.053 65.1333C507.676 65.0484 508.309 65.0877 508.917 65.2488C509.524 65.4099 510.094 65.6897 510.593 66.072L510.94 67.48L511.353 69.186Z" fill="#6C63FF"/>
<path d="M399.258 59.057L391.869 63.019L391.226 61.63C390.526 60.157 389.477 57.939 389.187 57.13C388.75 55.908 385.669 54.365 385.669 54.365C377.952 46.976 387.148 40.622 387.148 40.622C392.023 30.815 397.438 43.953 397.438 43.953C397.438 43.953 398.197 50.879 397.663 51.342C397.129 51.805 397.129 53.702 397.129 53.702C397.833 55.0612 398.429 56.4739 398.91 57.927C399.136 58.626 399.258 59.057 399.258 59.057Z" fill="#A1616A"/>
<path opacity="0.1" d="M399.259 59.057L391.87 63.019L391.227 61.63C392.269 60.755 395.967 57.771 397.182 57.893C397.762 57.9654 398.348 57.9805 398.931 57.938C399.136 58.626 399.259 59.057 399.259 59.057Z" fill="black"/>
<path d="M400.011 61.289L391.711 65.379L391.544 63.598L391.425 62.364C391.425 62.364 396.235 58.242 397.657 58.402C398.376 58.5061 399.105 58.5061 399.824 58.402L399.924 59.894L400.011 61.289Z" fill="#6C63FF"/>
<path d="M490.754 89.059C490.754 89.059 454.56 93.143 461.325 90.943C466.033 89.406 467.904 86.443 468.296 83.097C468.488 80.2444 468.028 77.3856 466.952 74.737C466.101 72.455 465.024 70.2641 463.736 68.197C463.736 68.197 491.39 52.981 485.866 66.814C485.014 68.9062 484.485 71.1158 484.297 73.367C484.131 75.6043 484.373 77.8532 485.011 80.004C486.054 83.4939 488.042 86.6276 490.754 89.059Z" fill="#A1616A"/>
<path opacity="0.1" d="M485.847 66.794C484.995 68.8863 484.466 71.0958 484.278 73.347C481.678 75.54 478.818 75.392 475.146 75.392C472.329 75.392 469.204 76.074 466.953 74.717C466.102 72.4351 465.025 70.2441 463.737 68.177C463.737 68.177 491.385 52.961 485.847 66.794Z" fill="black"/>
<path d="M474.657 76.356C482.922 76.356 489.622 69.656 489.622 61.391C489.622 53.1261 482.922 46.426 474.657 46.426C466.392 46.426 459.692 53.1261 459.692 61.391C459.692 69.656 466.392 76.356 474.657 76.356Z" fill="#A1616A"/>
<path opacity="0.1" d="M490.754 89.059C490.754 89.059 454.56 93.143 461.325 90.943C466.033 89.406 467.904 86.443 468.296 83.097C470.096 81.168 473.717 79.734 476.013 78.988C478.136 78.2742 480.428 78.2362 482.573 78.879C483.417 79.1331 484.22 79.5054 484.959 79.985C486.014 83.4876 488.02 86.6289 490.754 89.059Z" fill="black"/>
<path opacity="0.1" d="M511.353 69.186L504.433 70.786L504.285 69.757C505.026 68.7393 506.062 67.9747 507.253 67.5672C508.444 67.1598 509.732 67.1293 510.941 67.48L511.353 69.186Z" fill="black"/>
<path opacity="0.1" d="M400.011 61.289L391.711 65.379L391.544 63.598C394.233 62.152 397.028 60.9115 399.904 59.887L400.011 61.289Z" fill="black"/>
<path opacity="0.1" d="M505.07 180.258C491.044 182.496 471.107 185.352 467.943 184.387C465.313 183.587 456.926 183.673 449.627 183.924C449.691 180.271 449.756 177.847 449.756 177.847L504.086 172.188C504.172 174.902 504.501 177.603 505.07 180.258Z" fill="black"/>
<path d="M519.051 176.962C519.051 176.962 472.895 184.885 467.943 183.393C462.991 181.901 437.556 183.515 437.556 183.515C426.109 191.187 430.887 179.868 430.887 179.868C430.887 179.868 429.887 173.958 431.267 169.179C432.196 165.671 432.832 162.092 433.167 158.479C433.167 158.479 432.916 150.929 434.299 149.167C435.682 147.405 437.322 134.832 437.322 134.832C437.322 134.832 438.576 126.279 438.454 124.394C438.332 122.509 438.827 117.223 438.827 117.223L440.467 108.423C431.033 107.169 402.356 89.56 402.356 89.56C400.973 83.65 390.285 69.816 390.285 69.816C390.13 68.6513 389.834 67.5096 389.404 66.416C388.652 64.403 399.97 60.377 399.97 60.377C399.97 60.377 408.395 70.667 410.157 73.458C411.919 76.249 417.952 81.381 417.952 81.381C418.889 81.2846 419.836 81.4079 420.717 81.741L420.865 81.786C422.887 82.5797 424.782 83.6631 426.492 85.002C429.328 84.9348 432.079 85.9726 434.164 87.896C434.164 87.896 439.309 87.137 440.203 88.018C441.097 88.899 445.483 88.018 445.483 88.018C445.483 88.018 449.883 78.712 452.776 81.418C455.669 84.124 467.947 83.99 467.947 83.99C469.581 81.816 473.561 80.26 476.047 79.49C478.17 78.7792 480.461 78.7411 482.607 79.381C483.532 79.6572 484.403 80.0923 485.179 80.667L492.645 87.96C492.645 87.96 494.78 85.188 494.529 84.56C494.278 83.932 497.044 83.428 497.044 83.428C497.044 83.428 500.69 82.296 502.073 81.917C503.456 81.538 504.723 83.036 504.839 83.171C504.282 81.3834 504.064 79.5076 504.196 77.64C504.543 75.325 502.685 73.14 502.685 73.14C507.085 62.323 517.02 71.378 517.02 71.378C517.02 71.378 518.152 77.288 517.149 79.552C516.146 81.816 518.149 86.594 517.901 87.852C517.653 89.11 518.409 91.252 518.409 93.64C518.409 96.028 517.123 100.553 516.396 102.566C515.669 104.579 509.605 109.106 509.605 109.106C509.605 109.106 509.226 116.277 506.582 120.425C503.938 124.573 505.598 138.76 505.598 138.76C505.598 138.76 508.112 149.828 511.257 153.352C514.402 156.876 519.051 176.962 519.051 176.962Z" fill="#3F3D56"/>
<path opacity="0.1" d="M451.769 94.21C451.769 94.21 450.386 90.062 449.126 89.71C447.875 89.2498 446.656 88.7042 445.48 88.077L446.29 86.527C446.29 86.527 451.011 87.813 451.769 89.209C452.527 90.605 451.769 94.21 451.769 94.21Z" fill="black"/>
<path opacity="0.1" d="M426.488 85.032C426.237 86.318 415.04 87.418 415.04 87.418L420.699 81.746L420.84 81.797C422.87 82.5949 424.772 83.6847 426.487 85.032H426.488Z" fill="black"/>
<path d="M394.1 68.774C394.654 68.774 395.103 68.3249 395.103 67.771C395.103 67.2171 394.654 66.768 394.1 66.768C393.546 66.768 393.097 67.2171 393.097 67.771C393.097 68.3249 393.546 68.774 394.1 68.774Z" fill="#575988"/>
<path d="M395.386 70.787C395.94 70.787 396.389 70.3379 396.389 69.784C396.389 69.2301 395.94 68.781 395.386 68.781C394.832 68.781 394.383 69.2301 394.383 69.784C394.383 70.3379 394.832 70.787 395.386 70.787Z" fill="#575988"/>
<path d="M396.647 72.646C397.201 72.646 397.65 72.197 397.65 71.643C397.65 71.0891 397.201 70.64 396.647 70.64C396.093 70.64 395.644 71.0891 395.644 71.643C395.644 72.197 396.093 72.646 396.647 72.646Z" fill="#575988"/>
<path d="M397.965 74.652C398.519 74.652 398.968 74.2029 398.968 73.649C398.968 73.0951 398.519 72.646 397.965 72.646C397.411 72.646 396.962 73.0951 396.962 73.649C396.962 74.2029 397.411 74.652 397.965 74.652Z" fill="#575988"/>
<path d="M516.518 74.357C516.969 74.357 517.335 73.9912 517.335 73.54C517.335 73.0888 516.969 72.723 516.518 72.723C516.067 72.723 515.701 73.0888 515.701 73.54C515.701 73.9912 516.067 74.357 516.518 74.357Z" fill="#575988"/>
<path d="M516.646 76.216C517.097 76.216 517.463 75.8502 517.463 75.399C517.463 74.9478 517.097 74.582 516.646 74.582C516.195 74.582 515.829 74.9478 515.829 75.399C515.829 75.8502 516.195 76.216 516.646 76.216Z" fill="#575988"/>
<path d="M516.756 78.068C517.207 78.068 517.573 77.7022 517.573 77.251C517.573 76.7998 517.207 76.434 516.756 76.434C516.305 76.434 515.939 76.7998 515.939 77.251C515.939 77.7022 516.305 78.068 516.756 78.068Z" fill="#575988"/>
<path opacity="0.1" d="M451.814 128.295C451.692 128.147 480.047 163.949 502.054 143.26C502.073 143.266 467.3 147.98 451.814 128.295Z" fill="black"/>
<path opacity="0.1" d="M435.543 146.907C435.543 146.907 452.508 147.37 454.283 152.251V157.332C453.8 157.6 453.257 157.741 452.704 157.741C452.152 157.741 451.608 157.6 451.125 157.332C449.414 156.406 439.157 151.197 435.542 153.705L435.543 146.907Z" fill="black"/>
<path d="M435.858 146.907C435.858 146.907 452.084 147.351 453.782 152.007V156.847C453.32 157.104 452.799 157.239 452.27 157.239C451.742 157.239 451.221 157.104 450.759 156.847C449.126 155.972 439.318 151.001 435.859 153.394L435.858 146.907Z" fill="#3F3D56"/>
<path opacity="0.1" d="M444.804 110.069C446.537 114.081 448.746 117.871 451.383 121.356C454.251 125.208 457.726 128.569 461.673 131.305C461.673 131.305 445.087 112.397 444.804 110.069Z" fill="black"/>
<path opacity="0.1" d="M439.254 90.358C439.254 90.358 442.084 102.577 449.377 106.725L439.254 90.358Z" fill="black"/>
<path opacity="0.1" d="M434.913 91.592C434.842 91.367 432.398 101.239 444.313 106.725C444.315 106.724 439.254 105.007 434.913 91.592Z" fill="black"/>
<path opacity="0.1" d="M508.993 83.4C508.806 83.4 514.871 87.259 516.524 89.059C516.524 89.059 512.575 83.142 508.993 83.4Z" fill="black"/>
<path d="M470.612 74.955C470.614 75.2815 470.684 75.604 470.817 75.9021C470.95 76.2002 471.144 76.4674 471.386 76.6869C471.627 76.9063 471.912 77.0733 472.222 77.1771C472.531 77.2809 472.859 77.3193 473.184 77.29C477.744 77.573 482.496 77.772 486.689 76.004C487.475 75.7234 488.182 75.2556 488.747 74.641C489.375 73.6334 489.784 72.505 489.947 71.329C490.539 69.091 491.799 67.104 492.706 64.975C494.24 61.3787 494.754 57.4293 494.192 53.56C494.073 52.3738 493.681 51.2313 493.047 50.222C491.838 48.492 489.632 47.791 488.031 46.415C486.43 45.039 485.401 42.936 483.531 41.915C481.758 41.1183 479.769 40.9421 477.884 41.415C474.152 42.0487 470.577 43.3912 467.35 45.37C466.263 46.013 465.073 46.804 463.826 46.57C462.76 46.2338 461.848 45.5295 461.253 44.583C460.376 46.6412 460.008 48.8803 460.179 51.111C460.227 51.4383 460.216 51.7715 460.147 52.095C459.99 52.4859 459.751 52.8388 459.447 53.13C458.322 54.416 457.621 56.506 458.733 57.83C459.215 58.402 459.961 58.718 460.433 59.303C461.275 60.351 460.992 61.875 460.973 63.213C460.926 63.6801 461.045 64.1488 461.307 64.538C461.55 64.7649 461.848 64.9251 462.172 65.0029C462.495 65.0807 462.833 65.0735 463.153 64.982C463.79 64.7902 464.459 64.727 465.121 64.796C465.818 65.0227 466.42 65.4752 466.832 66.082C468.901 68.781 469.725 71.727 470.612 74.955Z" fill="#2D293D"/>
<g opacity="0.1">
<path opacity="0.1" d="M489.282 73.5021C488.717 74.1167 488.01 74.5845 487.224 74.8651C483.005 76.6211 478.259 76.4211 473.719 76.1511C473.393 76.1804 473.064 76.1418 472.754 76.0377C472.444 75.9336 472.158 75.7662 471.916 75.5462C471.674 75.3262 471.48 75.0583 471.346 74.7595C471.212 74.4607 471.142 74.1374 471.14 73.8101C470.252 70.5941 469.44 67.6431 467.326 64.9611C466.919 64.3426 466.317 63.8785 465.615 63.6431C464.953 63.5805 464.285 63.6436 463.647 63.8291C463.328 63.9214 462.99 63.9297 462.667 63.8532C462.343 63.7766 462.045 63.6178 461.801 63.3921C461.539 63.0029 461.42 62.5342 461.467 62.0671C461.467 60.7161 461.767 59.2051 460.927 58.1571C460.458 57.5721 459.712 57.2571 459.227 56.6781C458.912 56.251 458.719 55.7463 458.668 55.218C458.617 54.6897 458.71 54.1575 458.938 53.6781C458.138 54.9641 457.793 56.5781 458.726 57.6851C459.208 58.2571 459.954 58.5721 460.426 59.1581C461.268 60.2131 460.986 61.7301 460.966 63.0681C460.917 63.5345 461.033 64.0035 461.294 64.3931C461.538 64.6209 461.837 64.7816 462.161 64.8594C462.486 64.9372 462.825 64.9295 463.146 64.8371C463.783 64.645 464.452 64.5814 465.114 64.6501C465.811 64.8767 466.413 65.3292 466.825 65.9361C468.925 68.6181 469.751 71.5631 470.638 74.7921C470.742 75.5867 471.139 76.3138 471.751 76.8311C472.192 77.0437 472.677 77.1495 473.166 77.1401C477.726 77.4231 482.478 77.6291 486.671 75.8541C487.458 75.5754 488.165 75.1073 488.729 74.4911C489.013 74.1288 489.23 73.7196 489.372 73.2821C489.372 73.3643 489.339 73.4431 489.282 73.5021Z" fill="black"/>
<path opacity="0.1" d="M460.175 51.6931C460.377 51.4737 460.533 51.2154 460.632 50.9341C460.69 50.6086 460.69 50.2755 460.632 49.9501C460.506 48.1166 460.744 46.2763 461.332 44.535L461.248 44.4351C460.368 46.49 460 48.7275 460.174 50.9561C460.193 51.2 460.193 51.4451 460.174 51.6891L460.175 51.6931Z" fill="black"/>
</g>
<path opacity="0.1" d="M467.943 84.025C467.943 84.025 486.643 86.507 488.317 83.697L467.943 84.025Z" fill="black"/>
<path opacity="0.1" d="M504.285 76.286C504.285 76.286 514.678 76.286 516.961 80.196L504.285 76.286Z" fill="black"/>
<path d="M562.429 423.665C559.347 426.421 555.341 427.917 551.207 427.858C550.152 427.858 548.692 428.058 548.686 429.112C548.712 429.421 548.818 429.719 548.995 429.974C550.3 432.149 552.36 433.768 554.783 434.521C557.073 435.071 559.442 435.221 561.783 434.965L568.632 434.611C569.918 434.54 571.204 434.476 572.491 434.311C573.778 434.146 575.179 433.887 576.523 433.668C579.826 433.198 583.166 433.043 586.498 433.205C586.93 433.283 587.373 433.265 587.797 433.154C588.222 433.043 588.617 432.841 588.955 432.562C589.482 431.919 589.212 430.69 589.013 429.726C588.601 427.739 589.013 425.655 588.633 423.661C587.99 420.161 584.961 417.481 581.642 416.214C578.555 415.044 573.089 413.699 570.169 415.655C567.092 417.71 565.208 421.137 562.429 423.665Z" fill="#3F3D56"/>
<path d="M569.233 306.45C569.833 309.325 572.622 311.524 572.699 314.457C572.77 316.811 571.091 318.785 569.882 320.798C568.743 322.883 567.781 325.06 567.007 327.306C564.73 333.155 561.905 338.775 558.569 344.091C556.961 346.664 555.161 349.41 555.527 352.4C555.783 353.799 556.277 355.143 556.987 356.375L561.81 365.957C562.867 367.87 563.693 369.902 564.273 372.009C564.691 373.829 564.73 375.709 564.973 377.565C565.732 383.443 568.491 389.36 566.857 395.058C566.716 395.547 566.214 396.139 565.821 395.798C567.421 398.775 568.696 401.772 568.574 405.149C568.51 406.918 567.974 408.763 568.619 410.41C569.001 411.045 569.257 411.749 569.372 412.481C569.306 412.959 569.214 413.434 569.096 413.902C568.961 415.259 570.208 416.391 571.501 416.822C572.794 417.253 574.201 417.222 575.507 417.613C578.015 418.365 579.807 420.526 581.938 422.025C584.122 423.53 586.696 424.368 589.347 424.437C589.725 424.477 590.107 424.401 590.44 424.218C590.628 424.052 590.779 423.848 590.883 423.62C590.986 423.392 591.04 423.144 591.04 422.893C591.157 421.692 590.976 420.48 590.514 419.365C590.052 418.251 589.322 417.266 588.39 416.5C587.981 416.244 587.643 415.891 587.406 415.471C587.286 415.1 587.255 414.705 587.316 414.32C587.704 409.049 587.609 403.754 587.033 398.5C586.773 396.835 586.689 395.147 586.782 393.464C587.06 392.086 587.195 390.683 587.187 389.277C586.886 387.902 586.456 386.558 585.901 385.264C585.155 382.872 585.361 380.299 585.258 377.798C584.982 373.451 584.273 369.142 583.142 364.936C582.896 363.239 582.206 361.637 581.142 360.293C580.142 359.245 578.518 358.241 578.897 356.846C579.107 356.331 579.42 355.865 579.817 355.476C580.283 354.891 580.624 354.218 580.821 353.497C581.018 352.776 581.066 352.023 580.962 351.283C581.385 351.391 581.832 351.349 582.228 351.163C582.623 350.978 582.941 350.661 583.129 350.267C591.096 346.31 597.189 339.381 600.095 330.974C600.261 330.365 600.517 329.784 600.854 329.25C601.712 328.338 602.778 327.648 603.96 327.237C607.471 325.469 609.896 322.156 612.121 318.915C614.612 316.046 615.895 312.324 615.703 308.529L615.903 300.972C615.946 300.474 615.898 299.973 615.761 299.493C615.571 299.043 615.293 298.635 614.944 298.293C612.805 296.031 609.996 294.516 606.931 293.971C604.873 293.604 602.77 293.671 600.686 293.502C596.647 293.168 592.66 291.913 588.621 292.216C582.273 292.685 576.621 297.084 573.63 302.705C572.59 304.688 571.485 306.412 569.233 306.45Z" fill="#464353"/>
<path d="M533.991 257.316C534.077 258.483 533.919 259.654 533.528 260.757C533.314 261.3 532.909 261.747 532.39 262.013C531.87 262.28 531.271 262.348 530.705 262.204C531.033 261.464 530.165 260.622 529.354 260.712C528.955 260.804 528.585 260.991 528.274 261.258C527.964 261.525 527.723 261.863 527.572 262.243C527.035 263.323 526.855 264.546 527.058 265.735C527.315 267.214 528.171 268.635 527.945 270.121C527.765 271.356 526.858 272.584 527.345 273.729C527.657 274.254 528.05 274.726 528.509 275.129C529.144 275.912 529.454 276.908 529.376 277.912C529.299 278.917 528.839 279.854 528.091 280.529L540.259 280.773C539.815 282.805 540.728 284.883 541.77 286.69C544.688 291.658 548.717 295.883 553.542 299.033C558.367 302.183 563.855 304.172 569.578 304.845C569.268 305.026 569.003 305.273 568.8 305.569C568.598 305.865 568.464 306.202 568.408 306.556C568.352 306.91 568.375 307.273 568.476 307.617C568.578 307.961 568.754 308.278 568.993 308.545C569.544 308.976 570.214 309.229 570.913 309.269C571.612 309.309 572.306 309.135 572.903 308.77C574.079 308.019 575.197 307.181 576.247 306.262C578.245 304.846 580.683 304.19 583.122 304.41C584.646 304.558 586.122 305.053 587.656 305.13C592.156 305.368 596.017 302.13 600.356 300.802C603.514 299.831 607.096 299.831 609.745 297.857C610.89 297.008 611.829 295.613 611.494 294.236C611.217 293.445 610.779 292.72 610.208 292.107C608.815 290.035 607.636 287.826 606.69 285.515C604.524 281.071 601.542 277.075 597.899 273.733C595.149 271.33 592.235 269.121 589.178 267.122C588.439 266.577 587.651 266.101 586.824 265.701C585.725 265.343 584.651 264.914 583.609 264.415C582.181 263.515 581.358 261.926 580.258 260.646C577.847 257.829 574.142 256.537 571.171 254.324C569.177 252.838 567.415 250.883 565.036 250.169C563.879 249.815 562.65 249.79 561.493 249.442C558.863 248.642 556.946 246.31 554.367 245.365C552.328 244.619 550.077 244.812 547.936 244.548C545.522 244.25 543.216 243.372 541.216 241.988C540.571 241.463 539.849 241.042 539.074 240.74C535.814 239.75 535.55 245.821 535.215 247.924C534.775 251.046 533.991 254.152 533.991 257.316Z" fill="#000E7D"/>
<path d="M537.167 277.678C537.714 283.608 533.238 289.351 534.543 295.158C534.82 296.393 535.353 297.57 535.543 298.824C536.09 302.265 534.032 305.524 532.07 308.406L515.22 333.134C514.544 334.219 513.736 335.217 512.815 336.105C509.599 338.967 504.763 338.677 500.531 339.526C497.558 340.137 494.751 341.378 492.299 343.166C492.189 343.252 492.117 343.377 492.098 343.516C492.079 343.654 492.116 343.794 492.199 343.906C492.898 344.857 493.823 345.619 494.892 346.121C495.96 346.623 497.137 346.85 498.315 346.781C498.759 347.36 498.315 348.222 497.704 348.64C496.804 349.283 495.556 349.431 495.376 350.968C495.315 351.502 495.423 352.042 495.685 352.511C496.366 353.548 497.422 354.281 498.631 354.556C504.464 356.344 510.766 353.205 515.131 348.942C519.496 344.679 522.631 339.295 526.913 334.961C529.286 332.556 531.981 330.504 534.424 328.176C539.299 323.526 543.093 317.886 546.746 312.233C547.941 310.591 548.844 308.754 549.415 306.805C549.871 304.831 549.659 302.831 550.18 300.92C550.862 298.42 552.695 296.42 554.219 294.32C557.209 290.204 559.21 285.168 558.811 280.094C558.412 275.02 555.274 270.016 550.489 268.294C549.005 267.704 547.371 267.605 545.827 268.011C543.866 268.611 542.418 270.236 541.081 271.792L537.866 275.483C537.083 276.3 536.469 277.264 536.059 278.319C535.852 278.85 535.802 279.43 535.916 279.989C536.03 280.548 536.303 281.062 536.702 281.47" fill="#A1616A"/>
<path d="M545.709 253.355C543.497 253.484 541.059 253.702 539.497 255.284C538.842 256.011 538.311 256.841 537.928 257.741C536.41 260.834 534.928 264.069 534.822 267.516C534.732 270.269 535.529 272.963 535.947 275.684C536.294 277.948 535.413 280.257 535.247 282.546C538.307 281.708 541.276 280.566 544.109 279.137C545.746 278.07 547.485 277.167 549.299 276.442C551.942 275.561 556.373 277.085 558.888 278.307C559.023 276.545 557.698 273.471 557.84 271.707C557.86 270.962 557.992 270.225 558.232 269.52C558.608 268.774 559.054 268.066 559.563 267.404C560.52 265.848 560.961 264.028 560.821 262.207C560.681 260.385 559.969 258.654 558.785 257.262C556.553 254.754 553.061 253.815 549.73 253.403C547.632 253.16 545.518 253.086 543.408 253.184" fill="#000E7D"/>
<defs>
<linearGradient id="paint0_linear" x1="454.194" y1="351.281" x2="454.194" y2="37.0066" gradientUnits="userSpaceOnUse">
<stop stop-color="#808080" stop-opacity="0.251"/>
<stop offset="0.54" stop-color="#808080" stop-opacity="0.122"/>
<stop offset="1" stop-color="#808080" stop-opacity="0.102"/>
</linearGradient>
</defs>
</svg>
