<svg width="110" height="50" viewBox="0 0 110 50" fill="none" xmlns="http://www.w3.org/2000/svg">
<path d="M85 0H25C11.1929 0 0 11.1929 0 25C0 38.8071 11.1929 50 25 50H85C98.8071 50 110 38.8071 110 25C110 11.1929 98.8071 0 85 0Z" fill="white"/>
<path d="M85 0.5H25C11.469 0.5 0.5 11.469 0.5 25C0.5 38.531 11.469 49.5 25 49.5H85C98.531 49.5 109.5 38.531 109.5 25C109.5 11.469 98.531 0.5 85 0.5Z" stroke="#707070"/>
<path d="M26 46C37.598 46 47 36.598 47 25C47 13.402 37.598 4 26 4C14.402 4 5 13.402 5 25C5 36.598 14.402 46 26 46Z" fill="#000E7D"/>
</svg>
